<?xml version="1.0" encoding="UTF-8"?>
<!DOCTYPE svg PUBLIC "-//W3C//DTD SVG 1.1//EN" "http://www.w3.org/Graphics/SVG/1.1/DTD/svg11.dtd">
<svg xmlns="http://www.w3.org/2000/svg" version="1.1" width="1200px" height="1200px" style="shape-rendering:geometricPrecision; text-rendering:geometricPrecision; image-rendering:optimizeQuality; fill-rule:evenodd; clip-rule:evenodd" xmlns:xlink="http://www.w3.org/1999/xlink">
<g><path style="opacity:1" fill="#fefefe" d="M -0.5,-0.5 C 399.5,-0.5 799.5,-0.5 1199.5,-0.5C 1199.5,399.5 1199.5,799.5 1199.5,1199.5C 799.5,1199.5 399.5,1199.5 -0.5,1199.5C -0.5,799.5 -0.5,399.5 -0.5,-0.5 Z"/></g>
<g><path style="opacity:1" fill="#1d242c" d="M 534.5,183.5 C 578.835,183.333 623.168,183.5 667.5,184C 669.869,184.536 671.869,185.703 673.5,187.5C 721.02,296.05 768.353,404.716 815.5,513.5C 876.831,514.333 938.164,514.833 999.5,515C 1001.62,516.122 1003.46,517.622 1005,519.5C 1006.65,550.414 1006.98,581.414 1006,612.5C 1005.17,617.333 1002.33,620.167 997.5,621C 952.496,621.167 907.496,621.667 862.5,622.5C 908.895,729.359 954.895,836.359 1000.5,943.5C 1000.47,949.745 997.473,953.578 991.5,955C 952.5,955.667 913.5,955.667 874.5,955C 872.376,953.878 870.543,952.378 869,950.5C 778.667,733.833 688.333,517.167 598,300.5C 506.742,516.688 415.742,733.021 325,949.5C 323.125,952.187 320.625,954.021 317.5,955C 279.749,955.987 242.082,955.654 204.5,954C 198.121,948.9 196.954,942.733 201,935.5C 246.833,831.167 292.667,726.833 338.5,622.5C 292.504,621.667 246.504,621.167 200.5,621C 196.23,619.73 193.73,616.896 193,612.5C 192.333,582.167 192.333,551.833 193,521.5C 194.5,518.667 196.667,516.5 199.5,515C 261.832,514.5 324.166,514.333 386.5,514.5C 433.505,405.663 481.005,296.996 529,188.5C 530.73,186.598 532.563,184.931 534.5,183.5 Z"/></g>
</svg>
