<?xml version="1.0" encoding="UTF-8"?>
<!DOCTYPE svg PUBLIC "-//W3C//DTD SVG 1.1//EN" "http://www.w3.org/Graphics/SVG/1.1/DTD/svg11.dtd">
<svg xmlns="http://www.w3.org/2000/svg" version="1.1" width="512px" height="279px" style="shape-rendering:geometricPrecision; text-rendering:geometricPrecision; image-rendering:optimizeQuality; fill-rule:evenodd; clip-rule:evenodd" xmlns:xlink="http://www.w3.org/1999/xlink">
<g><path style="opacity:0.006" fill="#3e3e3e" d="M 137.5,17.5 C 134.5,17.5 131.5,17.5 128.5,17.5C 128.611,16.8826 128.944,16.3826 129.5,16C 133.167,15.3333 136.833,15.3333 140.5,16C 139.263,16.2321 138.263,16.7321 137.5,17.5 Z"/></g>
<g><path style="opacity:0.998" fill="#e9e9eb" d="M 369.5,17.5 C 376.508,17.3337 383.508,17.5004 390.5,18C 398.867,19.8982 407.2,21.0649 415.5,21.5C 417.261,22.3127 418.928,23.3127 420.5,24.5C 417.833,24.8333 417.833,25.1667 420.5,25.5C 420.369,26.3764 420.702,27.0431 421.5,27.5C 445.554,37.7199 463.721,54.3866 476,77.5C 491.693,116.457 484.526,150.624 454.5,180C 447.411,185.871 439.744,190.704 431.5,194.5C 406.964,203.414 382.964,202.248 359.5,191C 360.833,190.333 360.833,189.667 359.5,189C 360.094,188.536 360.761,188.369 361.5,188.5C 361.833,188.5 362.167,188.5 362.5,188.5C 362.611,189.117 362.944,189.617 363.5,190C 366.146,190.497 368.813,190.664 371.5,190.5C 374.167,190.5 376.833,190.5 379.5,190.5C 380.167,190.5 380.5,190.167 380.5,189.5C 384.247,189.608 387.914,189.108 391.5,188C 390.5,187.667 389.5,187.333 388.5,187C 391.271,184.272 393.105,184.439 394,187.5C 395.211,183.538 397.211,182.871 400,185.5C 403.797,183.691 407.297,181.525 410.5,179C 411.833,178 411.833,177 410.5,176C 412.279,176.979 413.945,176.646 415.5,175C 417.293,172.205 419.46,169.705 422,167.5C 423.605,164.352 424.605,161.019 425,157.5C 425.333,158.167 425.667,158.833 426,159.5C 426.833,157.833 427.667,156.167 428.5,154.5C 426.144,153.346 425.977,152.013 428,150.5C 428.333,151.167 428.667,151.833 429,152.5C 432.682,141.632 433.182,130.632 430.5,119.5C 426.527,118.925 425.527,116.758 427.5,113C 424.829,106.649 421.162,100.982 416.5,96C 414.846,95.3923 413.179,94.8923 411.5,94.5C 411.5,94.1667 411.5,93.8333 411.5,93.5C 411.5,92.8333 411.167,92.5 410.5,92.5C 409.508,92.6716 408.842,92.3382 408.5,91.5C 409.833,90.8333 409.833,90.1667 408.5,89.5C 407.833,89.1667 407.167,88.8333 406.5,88.5C 406.468,86.4334 405.468,85.1001 403.5,84.5C 398.783,82.1182 393.783,81.1182 388.5,81.5C 388.158,80.6618 387.492,80.3284 386.5,80.5C 380.579,79.2073 374.579,78.374 368.5,78C 367.01,77.2545 366.01,76.0879 365.5,74.5C 366.512,72.4478 367.179,70.2812 367.5,68C 365.847,55.2346 365.014,42.4013 365,29.5C 363.167,27.6667 361.333,25.8333 359.5,24C 361.701,22.9568 364.034,22.1235 366.5,21.5C 368.288,20.7174 369.288,19.3841 369.5,17.5 Z"/></g>
<g><path style="opacity:0.985" fill="#e8e8ea" d="M 121.5,17.5 C 129.949,19.031 138.616,19.8644 147.5,20C 141.5,20.3333 135.5,20.6667 129.5,21C 136.735,22.7242 144.069,23.5575 151.5,23.5C 149.504,36.7767 149.171,50.1101 150.5,63.5C 151.331,56.1892 151.831,48.8559 152,41.5C 152.247,49.357 152.747,57.1903 153.5,65C 153.301,70.2628 152.301,75.0962 150.5,79.5C 118.092,64.2269 87.092,66.7269 57.5,87C 26.5174,113.742 16.684,146.908 28,186.5C 27.5017,184.456 26.335,183.122 24.5,182.5C 23.4394,179.489 22.2727,176.489 21,173.5C 20.6667,174.5 20.3333,175.5 20,176.5C 19.3486,174.765 19.5153,173.098 20.5,171.5C 19.2776,166.129 17.611,161.962 15.5,159C 14.2366,142.474 14.2366,126.307 15.5,110.5C 16.492,106.198 17.3253,101.865 18,97.5C 18.3333,99.1667 18.6667,100.833 19,102.5C 19.0114,99.3408 19.8447,96.5074 21.5,94C 20.8333,93.3333 20.1667,92.6667 19.5,92C 20.5521,90.8808 21.7188,90.3808 23,90.5C 26.1932,84.1136 29.3599,77.7802 32.5,71.5C 34.8532,69.1401 36.8532,66.4735 38.5,63.5C 40.7267,61.3932 42.7267,59.0599 44.5,56.5C 48.8062,52.8604 52.8062,48.8604 56.5,44.5C 70.2585,34.1523 84.2585,26.6523 98.5,22C 97.8333,21.6667 97.1667,21.3333 96.5,21C 98.4406,20.2571 100.274,20.4238 102,21.5C 108.366,19.4785 114.866,18.1452 121.5,17.5 Z"/></g>
<g><path style="opacity:0.004" fill="#0d0d0d" d="M 415.5,21.5 C 420.842,21.6336 425.842,23.1336 430.5,26C 431.38,27.3561 431.714,28.8561 431.5,30.5C 430.508,30.6716 429.842,30.3382 429.5,29.5C 428.508,29.6716 427.842,29.3382 427.5,28.5C 428.833,28.1667 428.833,27.8333 427.5,27.5C 425.819,25.9925 423.819,24.9925 421.5,24.5C 421.167,24.5 420.833,24.5 420.5,24.5C 418.928,23.3127 417.261,22.3127 415.5,21.5 Z"/></g>
<g><path style="opacity:0.998" fill="#e0e0e0" d="M 369.5,17.5 C 369.288,19.3841 368.288,20.7174 366.5,21.5C 364.034,22.1235 361.701,22.9568 359.5,24C 361.333,25.8333 363.167,27.6667 365,29.5C 365.014,42.4013 365.847,55.2346 367.5,68C 367.179,70.2812 366.512,72.4478 365.5,74.5C 366.01,76.0879 367.01,77.2545 368.5,78C 374.579,78.374 380.579,79.2073 386.5,80.5C 386.842,81.3382 387.508,81.6716 388.5,81.5C 393.783,81.1182 398.783,82.1182 403.5,84.5C 405.468,85.1001 406.468,86.4334 406.5,88.5C 406.631,89.2389 406.464,89.9056 406,90.5C 404.59,89.2125 403.09,88.0458 401.5,87C 401.833,86.6667 402.167,86.3333 402.5,86C 401.423,85.5304 400.423,85.6971 399.5,86.5C 398.825,84.8914 397.158,83.5581 394.5,82.5C 393.833,82.8333 393.167,83.1667 392.5,83.5C 383.62,81.0272 374.787,81.0272 366,83.5C 364.715,83.0496 363.548,82.3829 362.5,81.5C 357.912,85.3022 352.912,87.6356 347.5,88.5C 346.298,91.0704 344.965,93.5704 343.5,96C 341.837,96.2649 340.337,95.7649 339,94.5C 332.667,100.833 326.333,107.167 320,113.5C 319.517,114.448 319.351,115.448 319.5,116.5C 316.833,118.5 314.5,120.833 312.5,123.5C 311.883,123.389 311.383,123.056 311,122.5C 308.483,125.627 305.983,128.627 303.5,131.5C 303.5,132.167 303.167,132.5 302.5,132.5C 302.167,131.167 301.833,131.167 301.5,132.5C 300.833,132.5 300.5,132.833 300.5,133.5C 299.833,133.5 299.5,133.833 299.5,134.5C 298.833,134.5 298.5,134.833 298.5,135.5C 296.164,137.754 293.497,138.087 290.5,136.5C 288.223,137.478 285.89,138.145 283.5,138.5C 283.5,118.833 283.5,99.1667 283.5,79.5C 284.833,79.5 286.167,79.5 287.5,79.5C 287.5,74.1667 287.5,68.8333 287.5,63.5C 290.167,63.5 292.833,63.5 295.5,63.5C 295.226,58.737 295.559,54.0704 296.5,49.5C 298.902,46.7845 301.568,44.2845 304.5,42C 302.291,41.043 302.457,39.8764 305,38.5C 305.333,39.5 305.667,40.5 306,41.5C 309.509,39.3303 312.009,36.8303 313.5,34C 312.833,33.6667 312.167,33.3333 311.5,33C 312.849,32.2276 313.682,31.0609 314,29.5C 314.118,31.5733 315.118,32.9067 317,33.5C 321.771,30.8648 326.604,28.3648 331.5,26C 331.167,25.6667 330.833,25.3333 330.5,25C 343.069,21.588 356.069,19.088 369.5,17.5 Z"/></g>
<g><path style="opacity:0.008" fill="#fefffe" d="M 316.5,31.5 C 317.833,32.1667 317.833,32.1667 316.5,31.5 Z"/></g>
<g><path style="opacity:0.008" fill="#fefffe" d="M 438.5,33.5 C 439.833,34.1667 439.833,34.1667 438.5,33.5 Z"/></g>
<g><path style="opacity:0.982" fill="#dcdcdc" d="M 227.5,63.5 C 232.785,69.4519 238.452,75.1186 244.5,80.5C 244.5,81.1667 244.833,81.5 245.5,81.5C 245.5,82.1667 245.833,82.5 246.5,82.5C 248.113,83.8381 248.613,85.5048 248,87.5C 243.964,91.7036 239.798,95.7036 235.5,99.5C 235.167,98.1667 234.833,98.1667 234.5,99.5C 233.833,99.5 233.5,99.8333 233.5,100.5C 232.167,100.833 232.167,101.167 233.5,101.5C 233.167,102.5 232.5,103.167 231.5,103.5C 231.167,102.167 230.833,102.167 230.5,103.5C 229.833,103.5 229.5,103.833 229.5,104.5C 228.833,104.5 228.5,104.833 228.5,105.5C 227.833,105.5 227.5,105.833 227.5,106.5C 226.833,106.5 226.5,106.833 226.5,107.5C 225.833,107.5 225.5,107.833 225.5,108.5C 224.833,108.5 224.5,108.833 224.5,109.5C 223.833,109.5 223.5,109.833 223.5,110.5C 216.854,116.812 210.187,123.145 203.5,129.5C 197.816,124.649 192.649,119.316 188,113.5C 186.035,114.885 184.202,114.718 182.5,113C 187.477,113.626 187.81,112.292 183.5,109C 181.5,108.333 179.5,107.667 177.5,107C 180.762,106.146 180.762,104.646 177.5,102.5C 176.678,100.272 175.345,99.6054 173.5,100.5C 171.331,97.608 168.997,94.9413 166.5,92.5C 165.098,90.5172 163.264,88.8505 161,87.5C 160.667,88.1667 160.333,88.8333 160,89.5C 159.601,89.2716 159.435,88.9382 159.5,88.5C 158.449,87.7777 157.782,86.7777 157.5,85.5C 154.838,83.116 152.504,81.116 150.5,79.5C 152.301,75.0962 153.301,70.2628 153.5,65C 152.747,57.1903 152.247,49.357 152,41.5C 151.831,48.8559 151.331,56.1892 150.5,63.5C 149.171,50.1101 149.504,36.7767 151.5,23.5C 144.069,23.5575 136.735,22.7242 129.5,21C 135.5,20.6667 141.5,20.3333 147.5,20C 138.616,19.8644 129.949,19.031 121.5,17.5C 123.833,17.5 126.167,17.5 128.5,17.5C 131.5,17.5 134.5,17.5 137.5,17.5C 143.138,16.5409 148.805,16.3742 154.5,17C 159.094,18.1406 163.26,19.974 167,22.5C 169.091,21.5004 170.757,22.1671 172,24.5C 173.333,23.8333 174.667,23.1667 176,22.5C 177.916,24.2095 180.082,25.5428 182.5,26.5C 185.528,31.0215 189.861,33.5215 195.5,34C 193.099,34.805 193.266,35.6383 196,36.5C 197.016,35.3659 197.683,35.6992 198,37.5C 198.333,37.1667 198.667,36.8333 199,36.5C 200.503,40.8102 202.17,41.1436 204,37.5C 204.309,38.7659 204.809,39.9326 205.5,41C 204.346,41.9138 204.513,42.7471 206,43.5C 206.333,42.8333 206.667,42.1667 207,41.5C 207.124,43.4257 207.958,45.259 209.5,47C 211.132,48.3104 212.799,48.8104 214.5,48.5C 217.734,54.4039 222.067,59.4039 227.5,63.5 Z"/></g>
<g><path style="opacity:0.004" fill="#000000" d="M 59.5,39.5 C 60.8333,40.1667 60.8333,40.1667 59.5,39.5 Z"/></g>
<g><path style="opacity:0.004" fill="#535353" d="M 56.5,44.5 C 55.7611,44.631 55.0944,44.4643 54.5,44C 55.4368,43.3083 56.1034,43.475 56.5,44.5 Z"/></g>
<g><path style="opacity:0.006" fill="#000000" d="M 454.5,45.5 C 455.601,44.4017 456.934,44.235 458.5,45C 457.207,45.49 455.873,45.6567 454.5,45.5 Z"/></g>
<g><path style="opacity:0.005" fill="#211f26" d="M 460.5,49.5 C 463.815,49.9717 466.149,51.805 467.5,55C 466.473,55.5133 465.473,56.0133 464.5,56.5C 464.5,55.8333 464.167,55.5 463.5,55.5C 462.373,54.8783 461.373,54.045 460.5,53C 461.684,51.8545 461.684,50.6879 460.5,49.5 Z"/></g>
<g><path style="opacity:0.004" fill="#303030" d="M 44.5,56.5 C 42.663,56.3605 42.3296,55.6939 43.5,54.5C 44.2975,54.9569 44.6309,55.6236 44.5,56.5 Z"/></g>
<g><path style="opacity:0.004" fill="#303031" d="M 38.5,63.5 C 36.8532,66.4735 34.8532,69.1401 32.5,71.5C 31.5269,69.0521 31.1936,66.3854 31.5,63.5C 33.8333,63.5 36.1667,63.5 38.5,63.5 Z"/></g>
<g><path style="opacity:0.004" fill="#020202" d="M 229.5,63.5 C 235.5,63.5 241.5,63.5 247.5,63.5C 247.726,70.2954 247.392,76.6287 246.5,82.5C 245.833,82.5 245.5,82.1667 245.5,81.5C 245.5,81.1667 245.5,80.8333 245.5,80.5C 243.5,78.1667 241.5,75.8333 239.5,73.5C 238.5,73.1667 237.833,72.5 237.5,71.5C 237.5,70.8333 237.167,70.5 236.5,70.5C 233.833,68.5 231.5,66.1667 229.5,63.5 Z"/></g>
<g><path style="opacity:0.004" fill="#707171" d="M 227.5,63.5 C 228.167,63.5 228.833,63.5 229.5,63.5C 231.5,66.1667 233.833,68.5 236.5,70.5C 237.167,70.5 237.5,70.8333 237.5,71.5C 237.833,72.5 238.5,73.1667 239.5,73.5C 241.5,75.8333 243.5,78.1667 245.5,80.5C 245.167,80.5 244.833,80.5 244.5,80.5C 238.452,75.1186 232.785,69.4519 227.5,63.5 Z"/></g>
<g><path style="opacity:0.004" fill="#000000" d="M 477.5,71.5 C 478.833,72.1667 478.833,72.1667 477.5,71.5 Z"/></g>
<g><path style="opacity:0.004" fill="#060606" d="M 123.5,80.5 C 127.434,81.3597 131.434,81.693 135.5,81.5C 126.916,84.2223 117.916,86.2223 108.5,87.5C 110.072,86.3127 111.739,85.3127 113.5,84.5C 114.5,84.5 115.5,84.5 116.5,84.5C 117.167,84.5 117.5,84.1667 117.5,83.5C 119.854,83.162 122.187,82.662 124.5,82C 123.944,81.6174 123.611,81.1174 123.5,80.5 Z"/></g>
<g><path style="opacity:1" fill="#c4c5c6" d="M 150.5,79.5 C 152.504,81.116 154.838,83.116 157.5,85.5C 154.47,86.151 151.803,85.151 149.5,82.5C 147.844,84.0224 146.677,83.689 146,81.5C 145.667,81.8333 145.333,82.1667 145,82.5C 143.509,80.9963 141.676,80.1629 139.5,80C 135.167,79.3333 130.833,79.3333 126.5,80C 130.95,80.0434 133.95,80.5434 135.5,81.5C 131.434,81.693 127.434,81.3597 123.5,80.5C 120.784,80.3862 118.784,81.3862 117.5,83.5C 116.833,83.5 116.5,83.8333 116.5,84.5C 115.5,84.5 114.5,84.5 113.5,84.5C 111.739,85.3127 110.072,86.3127 108.5,87.5C 106.302,87.1201 104.635,87.7868 103.5,89.5C 103.167,89.5 102.833,89.5 102.5,89.5C 102.167,90.5 101.5,91.1667 100.5,91.5C 100.167,91.5 99.8333,91.5 99.5,91.5C 99.1667,90.1667 98.8333,90.1667 98.5,91.5C 97.8333,91.5 97.5,91.8333 97.5,92.5C 97.4361,93.3652 97.1027,94.3652 96.5,95.5C 94.4327,94.4068 93.766,94.9068 94.5,97C 92.5588,99.4536 90.2254,101.287 87.5,102.5C 86.6457,103.632 86.6457,104.965 87.5,106.5C 86.8333,106.5 86.5,106.833 86.5,107.5C 84.6322,106.326 83.6322,106.993 83.5,109.5C 82.6554,110.671 81.9887,112.005 81.5,113.5C 81.5,113.833 81.5,114.167 81.5,114.5C 80.1667,115.167 80.1667,115.833 81.5,116.5C 81.7535,118.401 81.4202,119.067 80.5,118.5C 80.1667,117.167 79.8333,117.167 79.5,118.5C 79.5,118.833 79.5,119.167 79.5,119.5C 78.4931,122.143 78.4931,122.477 79.5,120.5C 80.8333,121.833 80.8333,123.167 79.5,124.5C 78.1667,124.833 78.1667,125.167 79.5,125.5C 79.6716,126.492 79.3382,127.158 78.5,127.5C 76.8185,132.795 76.6518,138.128 78,143.5C 78.49,142.207 78.6567,140.873 78.5,139.5C 78.8333,139.5 79.1667,139.5 79.5,139.5C 79.5567,141.884 79.2234,144.218 78.5,146.5C 79.0639,148.819 79.5639,151.153 80,153.5C 81.4424,155.391 82.6091,157.391 83.5,159.5C 82.1667,159.833 82.1667,160.167 83.5,160.5C 84.7255,161.937 85.7255,163.604 86.5,165.5C 89.7704,166.963 92.4371,169.129 94.5,172C 94.1667,173 93.8333,174 93.5,175C 96.0595,175.227 97.7262,176.56 98.5,179C 99.8989,179.595 101.232,179.428 102.5,178.5C 105.839,181.265 109.505,183.265 113.5,184.5C 113.5,184.833 113.5,185.167 113.5,185.5C 112.167,185.833 112.167,186.167 113.5,186.5C 113.833,186.5 114.167,186.5 114.5,186.5C 114.56,185.957 114.893,185.624 115.5,185.5C 117.487,185.868 118.487,186.534 118.5,187.5C 117.167,187.833 117.167,188.167 118.5,188.5C 119.609,188.557 120.609,188.89 121.5,189.5C 123.672,188.552 125.672,188.885 127.5,190.5C 124.116,190.66 120.783,190.327 117.5,189.5C 116.263,189.556 115.263,190.056 114.5,191C 116.134,191.494 117.801,191.66 119.5,191.5C 119.333,209.836 119.5,228.17 120,246.5C 121.533,246.944 123.033,247.277 124.5,247.5C 120.204,248.328 115.871,248.828 111.5,249C 115.688,249.176 119.688,249.676 123.5,250.5C 122.167,250.5 121.5,251.167 121.5,252.5C 114.445,251.667 107.778,250.334 101.5,248.5C 99.9017,249.485 98.235,249.651 96.5,249C 97.5,248.667 98.5,248.333 99.5,248C 91.4909,245.577 83.9909,242.41 77,238.5C 76.586,238.957 76.086,239.291 75.5,239.5C 74.4096,238.273 73.0762,237.44 71.5,237C 71.8333,236.667 72.1667,236.333 72.5,236C 70.9221,234.906 69.2554,234.072 67.5,233.5C 65.4193,231.559 63.4193,230.225 61.5,229.5C 58.5494,227.718 56.0494,225.385 54,222.5C 53.195,224.901 52.3617,224.734 51.5,222C 52.7119,220.893 52.3786,220.393 50.5,220.5C 49.4676,216.59 47.1343,215.09 43.5,216C 41.8248,214.291 40.1581,212.624 38.5,211C 39.5,210.667 40.5,210.333 41.5,210C 38.6239,205.634 35.2905,201.8 31.5,198.5C 32.041,196.477 31.541,194.477 30,192.5C 28.9326,191.809 27.7659,191.309 26.5,191C 26.9574,190.586 27.2907,190.086 27.5,189.5C 25.7941,187.915 24.4608,186.082 23.5,184C 23.5699,183.235 23.9033,182.735 24.5,182.5C 26.335,183.122 27.5017,184.456 28,186.5C 16.684,146.908 26.5174,113.742 57.5,87C 87.092,66.7269 118.092,64.2269 150.5,79.5 Z M 123.5,80.5 C 123.611,81.1174 123.944,81.6174 124.5,82C 122.187,82.662 119.854,83.162 117.5,83.5C 118.784,81.3862 120.784,80.3862 123.5,80.5 Z"/></g>
<g><path style="opacity:0.004" fill="#070708" d="M 406.5,88.5 C 407.167,88.8333 407.833,89.1667 408.5,89.5C 408.5,90.1667 408.5,90.8333 408.5,91.5C 408.842,92.3382 409.508,92.6716 410.5,92.5C 411.167,92.5 411.5,92.8333 411.5,93.5C 411.5,93.8333 411.5,94.1667 411.5,94.5C 407.702,95.4834 403.702,95.8168 399.5,95.5C 399.5,92.5 399.5,89.5 399.5,86.5C 400.423,85.6971 401.423,85.5304 402.5,86C 402.167,86.3333 401.833,86.6667 401.5,87C 403.09,88.0458 404.59,89.2125 406,90.5C 406.464,89.9056 406.631,89.2389 406.5,88.5 Z"/></g>
<g><path style="opacity:0.004" fill="#232225" d="M 166.5,92.5 C 162.966,92.9683 159.966,91.9683 157.5,89.5C 157.957,88.7025 158.624,88.3691 159.5,88.5C 159.435,88.9382 159.601,89.2716 160,89.5C 160.333,88.8333 160.667,88.1667 161,87.5C 163.264,88.8505 165.098,90.5172 166.5,92.5 Z"/></g>
<g><path style="opacity:0.004" fill="#131313" d="M 102.5,89.5 C 102.833,89.5 103.167,89.5 103.5,89.5C 103.5,91.5 103.5,93.5 103.5,95.5C 101.167,95.5 98.8333,95.5 96.5,95.5C 97.1027,94.3652 97.4361,93.3652 97.5,92.5C 98.1667,92.5 98.5,92.1667 98.5,91.5C 98.8333,91.5 99.1667,91.5 99.5,91.5C 99.8333,92.8333 100.167,92.8333 100.5,91.5C 101.5,91.1667 102.167,90.5 102.5,89.5 Z"/></g>
<g><path style="opacity:0.004" fill="#05020d" d="M 96.5,95.5 C 95.612,98.0545 95.2786,100.721 95.5,103.5C 92.6146,103.806 89.9479,103.473 87.5,102.5C 90.2254,101.287 92.5588,99.4536 94.5,97C 93.766,94.9068 94.4327,94.4068 96.5,95.5 Z"/></g>
<g><path style="opacity:0.008" fill="#d2d2d2" d="M 489.5,97.5 C 490.833,98.1667 490.833,98.8333 489.5,99.5C 489.5,98.8333 489.5,98.1667 489.5,97.5 Z"/></g>
<g><path style="opacity:0.004" fill="#fefffe" d="M 234.5,99.5 C 234.833,99.5 235.167,99.5 235.5,99.5C 235.315,100.17 234.981,100.17 234.5,99.5 Z"/></g>
<g><path style="opacity:0.004" fill="#3e3e3e" d="M 244.5,100.5 C 241.999,100.489 241.832,99.8224 244,98.5C 244.464,99.0944 244.631,99.7611 244.5,100.5 Z"/></g>
<g><path style="opacity:0.004" fill="#fefffe" d="M 233.5,100.5 C 233.833,100.5 234.167,100.5 234.5,100.5C 234.315,101.17 233.981,101.17 233.5,100.5 Z"/></g>
<g><path style="opacity:0.006" fill="#fefefe" d="M 177.5,102.5 C 177.631,103.239 177.464,103.906 177,104.5C 176.308,103.563 176.475,102.897 177.5,102.5 Z"/></g>
<g><path style="opacity:0.004" fill="#fefffe" d="M 230.5,103.5 C 230.833,103.5 231.167,103.5 231.5,103.5C 231.315,104.17 230.981,104.17 230.5,103.5 Z"/></g>
<g><path style="opacity:0.004" fill="#fefffe" d="M 229.5,104.5 C 229.833,104.5 230.167,104.5 230.5,104.5C 230.315,105.17 229.981,105.17 229.5,104.5 Z"/></g>
<g><path style="opacity:0.004" fill="#fefffe" d="M 228.5,105.5 C 228.833,105.5 229.167,105.5 229.5,105.5C 229.315,106.17 228.981,106.17 228.5,105.5 Z"/></g>
<g><path style="opacity:0.004" fill="#0f0f0f" d="M 87.5,106.5 C 87.1595,115.201 84.6595,123.201 80,130.5C 79.502,133.482 79.3354,136.482 79.5,139.5C 79.1667,139.5 78.8333,139.5 78.5,139.5C 78.6757,135.289 78.6757,131.289 78.5,127.5C 79.3382,127.158 79.6716,126.492 79.5,125.5C 79.5,125.167 79.5,124.833 79.5,124.5C 80.8333,123.167 80.8333,121.833 79.5,120.5C 79.5,120.167 79.5,119.833 79.5,119.5C 79.5,119.167 79.5,118.833 79.5,118.5C 79.8333,118.5 80.1667,118.5 80.5,118.5C 81.4202,119.067 81.7535,118.401 81.5,116.5C 81.5,115.833 81.5,115.167 81.5,114.5C 81.5,114.167 81.5,113.833 81.5,113.5C 84.4811,113.206 85.1478,111.872 83.5,109.5C 84.7095,109.068 85.7095,108.401 86.5,107.5C 86.5,106.833 86.8333,106.5 87.5,106.5 Z"/></g>
<g><path style="opacity:0.004" fill="#dddddd" d="M 227.5,106.5 C 227.833,106.5 228.167,106.5 228.5,106.5C 228.5,107.833 227.833,108.5 226.5,108.5C 226.5,108.167 226.5,107.833 226.5,107.5C 227.167,107.5 227.5,107.167 227.5,106.5 Z"/></g>
<g><path style="opacity:0.004" fill="#fefffe" d="M 225.5,108.5 C 225.833,108.5 226.167,108.5 226.5,108.5C 226.315,109.17 225.981,109.17 225.5,108.5 Z"/></g>
<g><path style="opacity:0.004" fill="#fefffe" d="M 224.5,109.5 C 224.833,109.5 225.167,109.5 225.5,109.5C 225.315,110.17 224.981,110.17 224.5,109.5 Z"/></g>
<g><path style="opacity:0.004" fill="#fefffe" d="M 223.5,110.5 C 223.833,110.5 224.167,110.5 224.5,110.5C 224.315,111.17 223.981,111.17 223.5,110.5 Z"/></g>
<g><path style="opacity:0.004" fill="#797a77" d="M 232.5,112.5 C 231.833,112.5 231.5,112.833 231.5,113.5C 230.957,113.44 230.624,113.107 230.5,112.5C 231.257,111.227 231.923,111.227 232.5,112.5 Z"/></g>
<g><path style="opacity:0.004" fill="#000000" d="M 319.5,116.5 C 319.5,120.167 319.5,123.833 319.5,127.5C 316.833,127.5 314.167,127.5 311.5,127.5C 311.433,126.041 311.766,124.708 312.5,123.5C 314.5,120.833 316.833,118.5 319.5,116.5 Z"/></g>
<g><path style="opacity:0.997" fill="#d5d5d5" d="M 296.5,49.5 C 295.559,54.0704 295.226,58.737 295.5,63.5C 292.833,63.5 290.167,63.5 287.5,63.5C 287.5,68.8333 287.5,74.1667 287.5,79.5C 286.167,79.5 284.833,79.5 283.5,79.5C 283.5,99.1667 283.5,118.833 283.5,138.5C 285.89,138.145 288.223,137.478 290.5,136.5C 293.497,138.087 296.164,137.754 298.5,135.5C 298.833,135.5 299.167,135.5 299.5,135.5C 297.167,138.167 294.833,140.833 292.5,143.5C 291.603,144.598 290.77,144.598 290,143.5C 281.333,152.167 272.667,160.833 264,169.5C 263.517,170.448 263.351,171.448 263.5,172.5C 262.542,172.953 261.708,173.619 261,174.5C 260.086,173.346 259.253,173.513 258.5,175C 259.654,175.914 259.487,176.747 258,177.5C 257.086,176.346 256.253,176.513 255.5,178C 255.833,178.333 256.167,178.667 256.5,179C 255,180.5 253.5,182 252,183.5C 251.667,183.167 251.333,182.833 251,182.5C 251.178,184.44 250.178,186.107 248,187.5C 246.636,186.742 245.469,187.242 244.5,189C 245.598,189.77 245.598,190.603 244.5,191.5C 243.448,191.351 242.448,191.517 241.5,192C 235.667,197.833 229.833,203.667 224,209.5C 223.517,210.448 223.351,211.448 223.5,212.5C 221.495,211.876 219.828,212.71 218.5,215C 218.833,215.333 219.167,215.667 219.5,216C 218.167,216.667 216.833,217.333 215.5,218C 215.833,218.333 216.167,218.667 216.5,219C 214.959,220.371 213.625,221.871 212.5,223.5C 209.687,223.025 207.687,224.025 206.5,226.5C 205.833,226.5 205.5,226.833 205.5,227.5C 204.167,227.833 204.167,228.167 205.5,228.5C 205.158,229.338 204.492,229.672 203.5,229.5C 203.5,229.833 203.5,230.167 203.5,230.5C 202.833,230.5 202.5,230.833 202.5,231.5C 202.167,231.5 201.833,231.5 201.5,231.5C 200.794,230.443 200.461,230.776 200.5,232.5C 200.5,232.833 200.5,233.167 200.5,233.5C 198.02,234.242 195.687,235.242 193.5,236.5C 193.167,235.167 192.833,235.167 192.5,236.5C 189.833,236.833 189.833,237.167 192.5,237.5C 191.597,240.925 190.097,241.258 188,238.5C 185.942,239.229 184.109,240.229 182.5,241.5C 181.005,241.989 179.671,242.655 178.5,243.5C 175.292,244.85 171.959,246.016 168.5,247C 170.301,247.317 170.634,247.984 169.5,249C 167.101,249.711 164.768,249.544 162.5,248.5C 159.601,249.642 156.601,250.308 153.5,250.5C 150.236,251.324 146.902,251.658 143.5,251.5C 137.021,250.509 130.354,250.176 123.5,250.5C 119.688,249.676 115.688,249.176 111.5,249C 115.871,248.828 120.204,248.328 124.5,247.5C 123.033,247.277 121.533,246.944 120,246.5C 119.5,228.17 119.333,209.836 119.5,191.5C 117.801,191.66 116.134,191.494 114.5,191C 115.263,190.056 116.263,189.556 117.5,189.5C 120.783,190.327 124.116,190.66 127.5,190.5C 132.627,190.708 137.627,190.042 142.5,188.5C 143.842,189.902 144.676,189.569 145,187.5C 145.333,187.833 145.667,188.167 146,188.5C 146.605,186.519 147.605,186.185 149,187.5C 150.067,186.809 151.234,186.309 152.5,186C 151.833,185.667 151.167,185.333 150.5,185C 153.949,185.95 156.949,185.117 159.5,182.5C 161.745,182.459 162.412,181.625 161.5,180C 163.875,180.541 165.875,179.708 167.5,177.5C 168.167,177.5 168.5,177.167 168.5,176.5C 178.167,167.5 187.5,158.167 196.5,148.5C 208.5,137.167 220.167,125.5 231.5,113.5C 232.167,113.5 232.5,113.167 232.5,112.5C 236.833,108.833 240.833,104.833 244.5,100.5C 248.012,98.3324 250.345,95.3324 251.5,91.5C 254.614,90.9087 257.114,89.242 259,86.5C 267.779,77.7208 277.613,67.8874 288.5,57C 286.071,56.5488 285.904,55.7155 288,54.5C 288.333,54.8333 288.667,55.1667 289,55.5C 291.106,52.8823 293.606,50.8823 296.5,49.5 Z"/></g>
<g><path style="opacity:0.005" fill="#1d1c1c" d="M 303.5,131.5 C 304.112,134.304 304.112,137.304 303.5,140.5C 301.551,143.119 298.885,145.785 295.5,148.5C 295.178,147.142 295.178,145.475 295.5,143.5C 294.5,143.5 293.5,143.5 292.5,143.5C 294.833,140.833 297.167,138.167 299.5,135.5C 299.5,135.167 299.5,134.833 299.5,134.5C 300.167,134.5 300.5,134.167 300.5,133.5C 301.167,133.5 301.5,133.167 301.5,132.5C 301.833,132.5 302.167,132.5 302.5,132.5C 303.167,132.5 303.5,132.167 303.5,131.5 Z"/></g>
<g><path style="opacity:0.985" fill="#e6e6e8" d="M 303.5,140.5 C 306.167,142.833 308.833,145.167 311.5,147.5C 313.167,149.833 315.167,151.833 317.5,153.5C 318.5,155.167 319.833,156.5 321.5,157.5C 321.5,158.167 321.833,158.5 322.5,158.5C 327.999,164.667 333.332,170 338.5,174.5C 338.5,174.833 338.5,175.167 338.5,175.5C 337.769,178.029 337.435,181.029 337.5,184.5C 338.93,184.421 340.264,184.754 341.5,185.5C 342.5,203.488 342.833,221.488 342.5,239.5C 339.509,239.33 337.509,240.663 336.5,243.5C 334.253,242.626 331.92,242.292 329.5,242.5C 328.833,242.5 328.5,242.833 328.5,243.5C 325.753,241.532 323.086,240.198 320.5,239.5C 319.434,238.308 318.601,238.641 318,240.5C 315.766,238.3 313.266,236.467 310.5,235C 311.167,234.667 311.833,234.333 312.5,234C 309.365,233.2 307.198,231.366 306,228.5C 304.951,229.517 303.784,229.684 302.5,229C 303.451,228.282 303.617,227.449 303,226.5C 302.333,225.167 301.667,225.167 301,226.5C 296.04,221.293 290.707,215.626 285,209.5C 279.318,203.66 273.151,197.66 266.5,191.5C 264.523,189.186 262.523,186.853 260.5,184.5C 260.957,182.402 261.957,180.736 263.5,179.5C 263.369,180.239 263.536,180.906 264,181.5C 274.995,170.725 285.495,159.725 295.5,148.5C 298.885,145.785 301.551,143.119 303.5,140.5 Z"/></g>
<g><path style="opacity:0.004" fill="#171718" d="M 317.5,153.5 C 315.167,151.833 313.167,149.833 311.5,147.5C 311.5,146.167 311.5,144.833 311.5,143.5C 314.167,143.5 316.833,143.5 319.5,143.5C 319.98,146.685 319.314,149.519 317.5,152C 321.449,152.807 321.449,153.307 317.5,153.5 Z"/></g>
<g><path style="opacity:0.004" fill="#9e9e9e" d="M 196.5,148.5 C 195.761,148.631 195.094,148.464 194.5,148C 195.437,147.308 196.103,147.475 196.5,148.5 Z"/></g>
<g><path style="opacity:0.016" fill="#c5c5c5" d="M 80.5,150.5 C 81.525,150.897 81.6917,151.563 81,152.5C 80.5357,151.906 80.369,151.239 80.5,150.5 Z"/></g>
<g><path style="opacity:0.004" fill="#5d5d5d" d="M 321.5,157.5 C 322.497,156.287 323.497,156.454 324.5,158C 323.906,158.464 323.239,158.631 322.5,158.5C 321.833,158.5 321.5,158.167 321.5,157.5 Z"/></g>
<g><path style="opacity:0.004" fill="#fefffe" d="M 83.5,159.5 C 84.8333,160.167 84.8333,160.167 83.5,159.5 Z"/></g>
<g><path style="opacity:0.004" fill="#131313" d="M 263.5,172.5 C 264.103,174.626 264.103,176.959 263.5,179.5C 261.957,180.736 260.957,182.402 260.5,184.5C 262.523,186.853 264.523,189.186 266.5,191.5C 259.167,191.5 251.833,191.5 244.5,191.5C 245.598,190.603 245.598,189.77 244.5,189C 245.469,187.242 246.636,186.742 248,187.5C 250.178,186.107 251.178,184.44 251,182.5C 251.333,182.833 251.667,183.167 252,183.5C 253.5,182 255,180.5 256.5,179C 256.167,178.667 255.833,178.333 255.5,178C 256.253,176.513 257.086,176.346 258,177.5C 259.487,176.747 259.654,175.914 258.5,175C 259.253,173.513 260.086,173.346 261,174.5C 261.708,173.619 262.542,172.953 263.5,172.5 Z"/></g>
<g><path style="opacity:0.005" fill="#232323" d="M 338.5,174.5 C 338.639,172.663 339.306,172.33 340.5,173.5C 340.043,174.298 339.376,174.631 338.5,174.5 Z"/></g>
<g><path style="opacity:0.004" fill="#27252b" d="M 168.5,176.5 C 167.833,176.5 167.5,176.833 167.5,177.5C 165.875,179.708 163.875,180.541 161.5,180C 162.412,181.625 161.745,182.459 159.5,182.5C 159.5,180.167 159.5,177.833 159.5,175.5C 162.448,175.777 165.281,175.444 168,174.5C 168.464,175.094 168.631,175.761 168.5,176.5 Z"/></g>
<g><path style="opacity:0.005" fill="#252526" d="M 487.5,176.5 C 487.833,176.5 488.167,176.5 488.5,176.5C 488.405,182.344 486.405,187.344 482.5,191.5C 483.354,189.965 483.354,188.632 482.5,187.5C 482.557,186.391 482.89,185.391 483.5,184.5C 484.167,184.5 484.5,184.167 484.5,183.5C 484.5,183.167 484.5,182.833 484.5,182.5C 484.833,182.5 485.167,182.5 485.5,182.5C 486.42,183.067 486.754,182.401 486.5,180.5C 487.338,180.158 487.672,179.492 487.5,178.5C 487.5,177.833 487.5,177.167 487.5,176.5 Z"/></g>
<g><path style="opacity:0.005" fill="#110e16" d="M 113.5,184.5 C 118.196,184.903 122.863,185.57 127.5,186.5C 125.025,186.964 123.025,187.964 121.5,189.5C 120.609,188.89 119.609,188.557 118.5,188.5C 118.5,188.167 118.5,187.833 118.5,187.5C 118.487,186.534 117.487,185.868 115.5,185.5C 114.893,185.624 114.56,185.957 114.5,186.5C 114.167,186.5 113.833,186.5 113.5,186.5C 113.5,186.167 113.5,185.833 113.5,185.5C 113.5,185.167 113.5,184.833 113.5,184.5 Z"/></g>
<g><path style="opacity:0.986" fill="#d5d6d7" d="M 338.5,175.5 C 342.458,178.285 346.291,181.285 350,184.5C 350.915,183.672 351.581,182.672 352,181.5C 352.219,182.938 352.719,184.271 353.5,185.5C 354.167,185.167 354.833,184.833 355.5,184.5C 358.096,185.482 360.762,186.149 363.5,186.5C 366.118,187.056 368.118,187.723 369.5,188.5C 362.833,188.833 362.833,189.167 369.5,189.5C 370.167,189.5 370.833,189.5 371.5,189.5C 371.5,189.833 371.5,190.167 371.5,190.5C 368.813,190.664 366.146,190.497 363.5,190C 362.944,189.617 362.611,189.117 362.5,188.5C 362.167,187.167 361.833,187.167 361.5,188.5C 360.761,188.369 360.094,188.536 359.5,189C 360.833,189.667 360.833,190.333 359.5,191C 382.964,202.248 406.964,203.414 431.5,194.5C 431.321,196.606 430.321,198.272 428.5,199.5C 427.682,202.107 427.182,204.774 427,207.5C 426.833,218.164 426.999,228.831 427.5,239.5C 426.167,239.5 424.833,239.5 423.5,239.5C 423.5,240.5 423.5,241.5 423.5,242.5C 423.5,243.167 423.833,243.5 424.5,243.5C 421.803,245.249 418.97,246.916 416,248.5C 415.311,247.643 414.478,246.977 413.5,246.5C 410.395,247.52 407.395,248.687 404.5,250C 393.214,251.617 381.88,252.784 370.5,253.5C 367.076,253.705 363.909,253.039 361,251.5C 360,251.833 359,252.167 358,252.5C 354.798,250.415 351.465,249.748 348,250.5C 347.395,248.519 346.395,248.185 345,249.5C 342.405,248.062 339.738,246.729 337,245.5C 336.617,246.056 336.117,246.389 335.5,246.5C 335.167,246.5 334.833,246.5 334.5,246.5C 334.289,244.576 333.623,244.243 332.5,245.5C 331.508,245.672 330.842,245.338 330.5,244.5C 329.508,244.672 328.842,244.338 328.5,243.5C 329.167,243.5 329.5,243.167 329.5,242.5C 331.92,242.292 334.253,242.626 336.5,243.5C 337.509,240.663 339.509,239.33 342.5,239.5C 342.833,221.488 342.5,203.488 341.5,185.5C 340.264,184.754 338.93,184.421 337.5,184.5C 337.435,181.029 337.769,178.029 338.5,175.5 Z"/></g>
<g><path style="opacity:0.005" fill="#000000" d="M 363.5,186.5 C 368.859,186.67 374.192,187.17 379.5,188C 380.056,188.383 380.389,188.883 380.5,189.5C 380.5,190.167 380.167,190.5 379.5,190.5C 377.052,189.527 374.385,189.194 371.5,189.5C 370.833,189.5 370.167,189.5 369.5,189.5C 369.5,189.167 369.5,188.833 369.5,188.5C 368.118,187.723 366.118,187.056 363.5,186.5 Z"/></g>
<g><path style="opacity:0.98" fill="#c1c2c4" d="M 421.5,24.5 C 423.819,24.9925 425.819,25.9925 427.5,27.5C 424.833,27.8333 424.833,28.1667 427.5,28.5C 427.842,29.3382 428.508,29.6716 429.5,29.5C 429.842,30.3382 430.508,30.6716 431.5,30.5C 433.635,32.0709 435.968,33.4043 438.5,34.5C 441.04,37.6068 444.373,39.4401 448.5,40C 448.167,40.3333 447.833,40.6667 447.5,41C 451.105,42.9719 454.105,45.6385 456.5,49C 457.793,49.49 459.127,49.6567 460.5,49.5C 461.684,50.6879 461.684,51.8545 460.5,53C 461.373,54.045 462.373,54.8783 463.5,55.5C 464.167,55.5 464.5,55.8333 464.5,56.5C 466.314,58.7641 468.147,61.0975 470,63.5C 470.333,62.8333 470.667,62.1667 471,61.5C 471.63,66.0962 473.797,69.7629 477.5,72.5C 481.952,82.3517 485.952,90.6851 489.5,97.5C 488.167,98.1667 488.167,98.8333 489.5,99.5C 493.263,113.527 495.097,127.861 495,142.5C 495.333,136.833 495.667,131.167 496,125.5C 496.871,135.717 496.371,145.717 494.5,155.5C 494.189,163.09 492.189,170.09 488.5,176.5C 488.167,173.833 487.833,173.833 487.5,176.5C 486.167,177.167 486.167,177.833 487.5,178.5C 487.672,179.492 487.338,180.158 486.5,180.5C 486.754,182.401 486.42,183.067 485.5,182.5C 485.167,181.167 484.833,181.167 484.5,182.5C 484.5,182.833 484.5,183.167 484.5,183.5C 483.833,183.5 483.5,183.833 483.5,184.5C 482.89,185.391 482.557,186.391 482.5,187.5C 483.354,188.632 483.354,189.965 482.5,191.5C 481.769,191.942 480.769,192.109 479.5,192C 478.748,192.671 478.414,193.504 478.5,194.5C 477.662,194.842 477.328,195.508 477.5,196.5C 476.167,197.167 476.167,197.833 477.5,198.5C 477.167,199.5 476.5,200.167 475.5,200.5C 475.167,200.5 474.833,200.5 474.5,200.5C 473.599,201.29 472.932,202.29 472.5,203.5C 471.443,204.206 471.776,204.539 473.5,204.5C 472.833,205.833 471.833,206.833 470.5,207.5C 470.167,206.167 469.833,206.167 469.5,207.5C 468.833,207.5 468.5,207.833 468.5,208.5C 468.5,208.833 468.5,209.167 468.5,209.5C 467.833,209.5 467.5,209.833 467.5,210.5C 466.833,210.5 466.5,210.833 466.5,211.5C 465.167,211.833 465.167,212.167 466.5,212.5C 466.167,213.5 465.5,214.167 464.5,214.5C 459.511,217.641 455.011,221.974 451,227.5C 449.636,226.742 448.469,227.242 447.5,229C 447.833,229.333 448.167,229.667 448.5,230C 443.555,230.456 440.221,232.956 438.5,237.5C 437.808,236.975 437.308,236.308 437,235.5C 435.855,236.636 434.688,237.636 433.5,238.5C 432.761,238.369 432.094,238.536 431.5,239C 431.966,240.299 431.966,241.799 431.5,243.5C 428.959,243.85 426.626,243.85 424.5,243.5C 423.833,243.5 423.5,243.167 423.5,242.5C 423.5,241.5 423.5,240.5 423.5,239.5C 424.833,239.5 426.167,239.5 427.5,239.5C 426.999,228.831 426.833,218.164 427,207.5C 427.182,204.774 427.682,202.107 428.5,199.5C 430.321,198.272 431.321,196.606 431.5,194.5C 439.744,190.704 447.411,185.871 454.5,180C 484.526,150.624 491.693,116.457 476,77.5C 463.721,54.3866 445.554,37.7199 421.5,27.5C 420.702,27.0431 420.369,26.3764 420.5,25.5C 421.167,25.5 421.5,25.1667 421.5,24.5 Z M 490.5,166.5 C 490.477,168.927 489.977,171.26 489,173.5C 488.412,170.861 488.912,168.527 490.5,166.5 Z M 490.5,166.5 C 490.372,164.345 490.872,162.345 492,160.5C 492.405,162.775 491.905,164.775 490.5,166.5 Z M 494.5,155.5 C 493.71,156.609 493.21,157.942 493,159.5C 492.762,155.152 493.095,150.819 494,146.5C 494.498,149.482 494.665,152.482 494.5,155.5 Z"/></g>
<g><path style="opacity:0.006" fill="#131313" d="M 478.5,194.5 C 479.649,194.791 480.316,195.624 480.5,197C 481.286,200.458 481.62,203.958 481.5,207.5C 479.633,207.955 477.8,208.622 476,209.5C 474.45,209.05 472.95,208.883 471.5,209C 471.957,209.414 472.291,209.914 472.5,210.5C 471.086,211.624 469.586,212.624 468,213.5C 467.517,214.448 467.351,215.448 467.5,216.5C 465.821,216.715 464.821,216.048 464.5,214.5C 465.5,214.167 466.167,213.5 466.5,212.5C 466.5,212.167 466.5,211.833 466.5,211.5C 467.167,211.5 467.5,211.167 467.5,210.5C 468.167,210.5 468.5,210.167 468.5,209.5C 468.5,209.167 468.5,208.833 468.5,208.5C 469.167,208.5 469.5,208.167 469.5,207.5C 469.833,207.5 470.167,207.5 470.5,207.5C 471.833,206.833 472.833,205.833 473.5,204.5C 473.5,203.833 473.167,203.5 472.5,203.5C 472.932,202.29 473.599,201.29 474.5,200.5C 474.833,201.833 475.167,201.833 475.5,200.5C 476.5,200.167 477.167,199.5 477.5,198.5C 477.5,197.833 477.5,197.167 477.5,196.5C 477.328,195.508 477.662,194.842 478.5,194.5 Z"/></g>
<g><path style="opacity:0.004" fill="#0f0f10" d="M 223.5,212.5 C 223.5,216.167 223.5,219.833 223.5,223.5C 219.833,223.5 216.167,223.5 212.5,223.5C 213.625,221.871 214.959,220.371 216.5,219C 216.167,218.667 215.833,218.333 215.5,218C 216.833,217.333 218.167,216.667 219.5,216C 219.167,215.667 218.833,215.333 218.5,215C 219.828,212.71 221.495,211.876 223.5,212.5 Z"/></g>
<g><path style="opacity:0.004" fill="#feff04" d="M 47.5,218.5 C 48.8333,219.167 48.8333,219.167 47.5,218.5 Z"/></g>
<g><path style="opacity:0.004" fill="#fdfffe" d="M 50.5,220.5 C 49.8333,221.167 49.8333,221.167 50.5,220.5 Z"/></g>
<g><path style="opacity:0.004" fill="#000000" d="M 294.5,223.5 C 295.077,222.227 295.743,222.227 296.5,223.5C 296.03,224.463 295.363,224.463 294.5,223.5 Z"/></g>
<g><path style="opacity:0.004" fill="#101010" d="M 206.5,226.5 C 207.482,229.962 207.815,233.629 207.5,237.5C 204.612,237.78 203.112,236.447 203,233.5C 202.23,234.598 201.397,234.598 200.5,233.5C 200.5,233.167 200.5,232.833 200.5,232.5C 201.167,232.5 201.5,232.167 201.5,231.5C 201.833,231.5 202.167,231.5 202.5,231.5C 203.206,232.557 203.539,232.224 203.5,230.5C 203.5,230.167 203.5,229.833 203.5,229.5C 204.492,229.672 205.158,229.338 205.5,228.5C 205.5,228.167 205.5,227.833 205.5,227.5C 206.167,227.5 206.5,227.167 206.5,226.5 Z"/></g>
<g><path style="opacity:0.012" fill="#fefffe" d="M 61.5,229.5 C 60.8333,230.167 60.8333,230.167 61.5,229.5 Z"/></g>
<g><path style="opacity:0.004" fill="#999065" d="M 67.5,233.5 C 66.0536,234.613 64.3869,234.78 62.5,234C 64.1341,233.506 65.8008,233.34 67.5,233.5 Z"/></g>
<g><path style="opacity:0.004" fill="#000000" d="M 199.5,234.5 C 200.525,234.897 200.692,235.563 200,236.5C 199.536,235.906 199.369,235.239 199.5,234.5 Z"/></g>
<g><path style="opacity:0.004" fill="#7e7f7e" d="M 192.5,236.5 C 192.833,236.5 193.167,236.5 193.5,236.5C 193.315,237.17 192.981,237.17 192.5,236.5 Z"/></g>
<g><path style="opacity:0.005" fill="#191919" d="M 433.5,238.5 C 436.797,238.329 437.131,238.995 434.5,240.5C 433.702,240.043 433.369,239.376 433.5,238.5 Z"/></g>
<g><path style="opacity:0.004" fill="#000000" d="M 320.5,239.5 C 323.086,240.198 325.753,241.532 328.5,243.5C 328.842,244.338 329.508,244.672 330.5,244.5C 330.842,245.338 331.508,245.672 332.5,245.5C 333.167,245.833 333.833,246.167 334.5,246.5C 334.833,246.5 335.167,246.5 335.5,246.5C 330.36,247.488 325.026,247.821 319.5,247.5C 319.194,244.615 319.527,241.948 320.5,239.5 Z"/></g>
<g><path style="opacity:0.004" fill="#a7a7a7" d="M 182.5,241.5 C 183.239,241.369 183.906,241.536 184.5,242C 183.563,242.692 182.897,242.525 182.5,241.5 Z"/></g>
<g><path style="opacity:0.006" fill="#fefffe" d="M 178.5,243.5 C 179.239,243.369 179.906,243.536 180.5,244C 179.563,244.692 178.897,244.525 178.5,243.5 Z"/></g>
<g><path style="opacity:0.115" fill="#f6f23a" d="M 123.5,250.5 C 130.354,250.176 137.021,250.509 143.5,251.5C 137.021,252.491 130.354,252.824 123.5,252.5C 122.833,252.5 122.167,252.5 121.5,252.5C 121.5,251.167 122.167,250.5 123.5,250.5 Z"/></g>
<g><path style="opacity:0.004" fill="#151417" d="M 153.5,250.5 C 151.974,252.13 149.974,252.963 147.5,253C 139.323,253.823 131.323,253.656 123.5,252.5C 130.354,252.824 137.021,252.491 143.5,251.5C 146.902,251.658 150.236,251.324 153.5,250.5 Z"/></g>
</svg>
