<?xml version="1.0" encoding="UTF-8"?>
<svg version="1.1" xmlns="http://www.w3.org/2000/svg" width="322" height="210">
<path d="M0 0 C106.26 0 212.52 0 322 0 C322 69.3 322 138.6 322 210 C215.74 210 109.48 210 0 210 C0 140.7 0 71.4 0 0 Z " fill="#181A1B" transform="translate(0,0)"/>
<path d="M0 0 C1.51400391 0.01740234 1.51400391 0.01740234 3.05859375 0.03515625 C4.07050781 0.04417969 5.08242187 0.05320313 6.125 0.0625 C7.29869141 0.07990234 7.29869141 0.07990234 8.49609375 0.09765625 C10.70204033 5.73080931 12.47310785 11.33245849 13.9921875 17.18481445 C14.33674484 18.49142532 14.33674484 18.49142532 14.68826294 19.82443237 C15.44063664 22.68141729 16.1871279 25.53990387 16.93359375 28.3984375 C17.45982586 30.40099386 17.98644355 32.40344892 18.51342773 34.4058075 C19.8968453 39.66623092 21.27534473 44.9279305 22.65270996 50.18994141 C24.32116713 56.56045813 25.99527465 62.92949174 27.6686554 69.29871655 C28.9718981 74.25949568 30.27429217 79.22049199 31.57397461 84.1822052 C31.81336258 85.09528537 32.05275055 86.00836554 32.2993927 86.9491148 C32.75822962 88.69982836 33.21641482 90.4507129 33.6738739 92.20178699 C35.05306309 97.46659363 36.48843873 102.71108844 38.03100586 107.93083191 C38.55447867 110.36966909 38.577418 112.61050679 38.49609375 115.09765625 C35.85609375 115.09765625 33.21609375 115.09765625 30.49609375 115.09765625 C29.82509391 112.49453633 29.15914037 109.89030227 28.49609375 107.28515625 C28.3053125 106.54716797 28.11453125 105.80917969 27.91796875 105.04882812 C27.14346461 101.99230284 26.49609375 99.26392147 26.49609375 96.09765625 C22.56849575 99.36076637 18.81867807 102.70438851 15.3515625 106.45703125 C14.79815186 107.04524658 14.24474121 107.63346191 13.67456055 108.23950195 C12.57127048 109.41982173 11.48474846 110.61608308 10.41723633 111.82885742 C6.58379428 115.89013444 6.58379428 115.89013444 3.34375 116.50830078 C1.15234375 116.5390625 1.15234375 116.5390625 -2.50390625 116.09765625 C-4.09574524 114.50581726 -3.6298975 112.86320126 -3.63088989 110.65625 C-3.63370972 109.69710693 -3.63652954 108.73796387 -3.63943481 107.74975586 C-3.63741058 106.68893799 -3.63538635 105.62812012 -3.63330078 104.53515625 C-3.6350531 103.42470947 -3.63680542 102.3142627 -3.63861084 101.17016602 C-3.64303197 97.47931379 -3.64009044 93.78850901 -3.63671875 90.09765625 C-3.63739171 87.54557282 -3.63836167 84.99348946 -3.63961792 82.44140625 C-3.64109525 77.08462863 -3.63903381 71.7278682 -3.63427734 66.37109375 C-3.62883476 60.1698191 -3.63059743 53.96857732 -3.63610375 47.76730347 C-3.64118062 41.8123141 -3.64065332 35.85733498 -3.63772202 29.90234375 C-3.63705249 27.3632812 -3.63788207 24.82421783 -3.64020157 22.28515625 C-3.64272655 18.74346661 -3.63888967 15.20184108 -3.63330078 11.66015625 C-3.63532501 10.59933838 -3.63734924 9.53852051 -3.63943481 8.44555664 C-3.63661499 7.48641357 -3.63379517 6.52727051 -3.63088989 5.5390625 C-3.63051287 4.70060791 -3.63013584 3.86215332 -3.62974739 2.99829102 C-3.43457511 0.05051711 -2.96477797 0.11563097 0 0 Z " fill="#DBD9D6" transform="translate(212.50390625,35.90234375)"/>
<path d="M0 0 C3.96 0 7.92 0 12 0 C14.26615009 5.77039661 16.04984398 11.51987605 17.60375977 17.51782227 C17.84482452 18.43433563 18.08588928 19.350849 18.33425903 20.2951355 C19.12391191 23.30120882 19.90766226 26.3087875 20.69140625 29.31640625 C21.24244484 31.41822835 21.79387828 33.51994696 22.34568787 35.62156677 C23.79360579 41.13998733 25.23662241 46.65967739 26.6784668 52.1796875 C28.42997457 58.88194976 30.18669381 65.58284744 31.94324398 72.28378963 C33.31006882 77.49804921 34.67592696 82.71255457 36.03871155 87.9278717 C36.53435236 89.82243863 37.02999342 91.71700548 37.52563477 93.61157227 C37.85843193 94.88744957 37.85843193 94.88744957 38.19795227 96.18910217 C39.13686512 99.77535975 40.09463819 103.34838688 41.14683533 106.90318298 C41.93954301 109.78055324 42.17947522 112.03865892 42 115 C39.36 115 36.72 115 34 115 C31.525 106.09 31.525 106.09 29 97 C23.58907522 101.53897756 23.58907522 101.53897756 18.75390625 106.4296875 C18.22603516 106.996875 17.69816406 107.5640625 17.15429688 108.1484375 C16.08313808 109.31028336 15.02595894 110.48515794 13.98242188 111.671875 C10.08639818 115.79093537 10.08639818 115.79093537 6.84326172 116.41503906 C4.65234375 116.4453125 4.65234375 116.4453125 1 116 C0 115 0 115 -0.12304783 113.08095455 C-0.12212604 112.2338268 -0.12120424 111.38669905 -0.12025452 110.51390076 C-0.12162918 109.54489838 -0.12300385 108.575896 -0.12442017 107.57752991 C-0.12082489 106.50579025 -0.11722961 105.4340506 -0.11352539 104.32983398 C-0.11367142 103.20802734 -0.11381744 102.0862207 -0.1139679 100.93041992 C-0.1132682 97.20229189 -0.10547315 93.47421311 -0.09765625 89.74609375 C-0.09579227 87.16919482 -0.09436827 84.59229553 -0.09336853 82.01539612 C-0.08993342 75.91324885 -0.0820426 69.81112206 -0.07201904 63.70898253 C-0.06085689 56.7635075 -0.0553472 49.81803165 -0.05032361 42.87254989 C-0.03985996 28.58169007 -0.02206065 14.29084631 0 0 Z " fill="#DDDBD9" transform="translate(127,36)"/>
<path d="M0 0 C3.63 0 7.26 0 11 0 C13.57166554 2.57166554 13.86338266 4.58213034 14.78759766 8.09863281 C14.95370041 8.7232692 15.11980316 9.34790558 15.29093933 9.99147034 C15.83898321 12.06024683 16.37683208 14.13151622 16.9140625 16.203125 C17.29195611 17.64331177 17.67024743 19.08339423 18.04891968 20.52337646 C18.84183436 23.54518234 19.6296807 26.56825354 20.4140625 29.59228516 C21.41760481 33.45946837 22.43387323 37.32316953 23.45405006 41.18599319 C24.23831448 44.16153432 25.01557417 47.13887125 25.79078293 50.11678314 C26.1625733 51.54144045 26.53655514 52.96552777 26.91279984 54.3890152 C27.43940166 56.38549557 27.95646258 58.38421956 28.47119141 60.38378906 C28.91514755 62.08683197 28.91514755 62.08683197 29.36807251 63.82427979 C30.00036879 67.00185332 30.23127903 69.77055814 30 73 C28.31661346 74.97304657 26.49356215 76.33237965 24.43359375 77.8984375 C22.579133 80.61696579 22.91075833 82.44724365 23.46459961 85.60986328 C24.52882125 90.36076608 25.77379709 95.05565296 27.0625 99.75 C27.62045907 101.78520997 28.17403227 103.82162877 28.72265625 105.859375 C29.09015991 107.19693848 29.09015991 107.19693848 29.46508789 108.56152344 C30 111 30 111 30 115 C26.625 115.1875 26.625 115.1875 23 115 C21.03129313 112.04693969 20.35455758 110.06902003 19.4921875 106.67578125 C19.09580078 105.13374023 19.09580078 105.13374023 18.69140625 103.56054688 C18.42199219 102.48869141 18.15257812 101.41683594 17.875 100.3125 C17.59785156 99.22904297 17.32070312 98.14558594 17.03515625 97.02929688 C16.35163283 94.35412765 15.67346769 91.67771516 15 89 C12.38757007 90.59032538 10.82512307 91.61275949 9 94 C8.10446627 97.76406343 8.1151312 101.45626497 8.125 105.3125 C8.104375 106.33923828 8.08375 107.36597656 8.0625 108.42382812 C8.01550087 110.95003129 7.99554905 113.47344998 8 116 C5.36 116 2.72 116 0 116 C0 77.72 0 39.44 0 0 Z " fill="#DEDCD9" transform="translate(172,36)"/>
<path d="M0 0 C2.31 0 4.62 0 7 0 C9.07141328 5.31961646 10.80753806 10.58563026 12.23657227 16.10913086 C12.43862274 16.87612808 12.64067322 17.64312531 12.84884644 18.43336487 C13.50878539 20.94280615 14.1627055 23.4537709 14.81640625 25.96484375 C15.27783248 27.72555284 15.73958418 29.48617667 16.2016449 31.24671936 C17.16655727 34.92674803 18.1286917 38.60748732 19.08862305 42.28881836 C20.31403112 46.98801225 21.54457656 51.68584068 22.77699375 56.38320065 C23.72985023 60.01610787 24.68086183 63.6494959 25.63123894 67.28305244 C26.08417399 69.01455485 26.53746198 70.74596497 26.99112129 72.47727776 C27.62674625 74.90489689 28.2601067 77.33309579 28.89282227 79.76147461 C29.07728409 80.46460785 29.26174591 81.16774109 29.45179749 81.8921814 C30.75381195 86.90319239 31.9048239 91.93993654 33 97 C33.53924827 82.61285606 33.56842915 69.90418063 28.74853516 56.29394531 C27.24573366 51.68849102 26.19480584 46.95734308 25.0625 42.25 C22.91400388 33.43829565 20.56653422 24.71293174 17.91625977 16.03808594 C16.31938742 10.67276886 15.47491032 5.58159305 15 0 C17.31 0 19.62 0 22 0 C24.15860996 4.77152265 25.75321811 9.36927154 27.04296875 14.46484375 C27.36031982 15.70613037 27.6776709 16.94741699 28.00463867 18.22631836 C28.39498291 19.7810083 28.78532715 21.33569824 29.1875 22.9375 C30.445625 27.908125 31.70375 32.87875 33 38 C33.33 25.79 33.66 13.58 34 1 C36.64 1 39.28 1 42 1 C42 38.62 42 76.24 42 115 C38.04 115 34.08 115 30 115 C26.88180647 108.53752036 25.34908313 101.83264493 23.6875 94.875 C21.61194566 86.36654362 19.47474353 77.90143272 17 69.5 C14.2198281 60.03468907 11.83606391 50.48550744 9.47363281 40.90844727 C7.48784201 32.8802264 5.35554915 24.92816774 3 17 C-0.43766578 5.39787798 -0.43766578 5.39787798 0 0 Z " fill="#DBD9D7" transform="translate(77,36)"/>
<path d="M0 0 C2.1826434 2.1826434 2.40316513 2.95933782 3.04296875 5.875 C3.22657959 6.68332275 3.41019043 7.49164551 3.59936523 8.32446289 C3.89049194 9.64885376 3.89049194 9.64885376 4.1875 11 C5.63138853 17.39065852 7.17234467 23.72894631 8.953125 30.03515625 C9.28159424 31.20369141 9.61006348 32.37222656 9.94848633 33.57617188 C10.60099701 35.87630827 11.26467286 38.1733104 11.94018555 40.46679688 C12.23707275 41.52060547 12.53395996 42.57441406 12.83984375 43.66015625 C13.11175537 44.59480713 13.38366699 45.52945801 13.66381836 46.49243164 C14.06020344 49.44905555 13.63366266 50.54818267 12 53 C10.52519409 54.58575461 8.99981108 56.12538198 7.4375 57.625 C4.30957946 60.51070681 4.30957946 60.51070681 2 64 C1.34 64 0.68 64 0 64 C0 42.88 0 21.76 0 0 Z " fill="#202223" transform="translate(217,53)"/>
<path d="M0 0 C0.99 0.495 0.99 0.495 2 1 C2.82215625 3.97762208 3.53092766 6.92228216 4.1875 9.9375 C5.62944074 16.35106774 7.1661369 22.71173668 8.953125 29.0390625 C9.28159424 30.20703369 9.61006348 31.37500488 9.94848633 32.57836914 C10.60116435 34.87764539 11.26484917 37.17382932 11.94018555 39.46655273 C12.23707275 40.52044189 12.53395996 41.57433105 12.83984375 42.66015625 C13.11175537 43.59480713 13.38366699 44.52945801 13.66381836 45.49243164 C14.06020344 48.44905555 13.63366266 49.54818267 12 52 C10.52519409 53.58575461 8.99981108 55.12538198 7.4375 56.625 C4.30957946 59.51070681 4.30957946 59.51070681 2 63 C1.34 63 0.68 63 0 63 C0 42.21 0 21.42 0 0 Z " fill="#202223" transform="translate(135,54)"/>
<path d="M0 0 C1.48108106 2.96216212 2.50592599 5.36034917 3.42382812 8.47387695 C3.68329224 9.35191483 3.94275635 10.2299527 4.21008301 11.13459778 C5.36052236 15.13255408 6.49215546 19.13539983 7.60742188 23.14331055 C8.20213939 25.25491561 8.81152807 27.36244389 9.43554688 29.46557617 C10.33625862 32.50595437 11.18826766 35.55646446 12.03125 38.61328125 C12.31842896 39.5489241 12.60560791 40.48456696 12.90148926 41.44856262 C14.6008604 47.88699475 14.6008604 47.88699475 12.85420227 51.12242126 C11.3340163 52.91539315 9.76954462 54.4566972 8 56 C7.31292969 56.73089844 6.62585938 57.46179688 5.91796875 58.21484375 C5.34691406 58.78332031 4.77585938 59.35179687 4.1875 59.9375 C3.31158203 60.81728516 3.31158203 60.81728516 2.41796875 61.71484375 C1 63 1 63 0 63 C0 42.21 0 21.42 0 0 Z " fill="#181A1B" transform="translate(180,55)"/>
<path d="M0 0 C2.18543839 3.27815758 2.82667059 5.08991063 3 9 C1.47705078 11.33349609 1.47705078 11.33349609 -0.8046875 13.5234375 C-1.61550781 14.31621094 -2.42632812 15.10898438 -3.26171875 15.92578125 C-4.55529297 17.13814453 -4.55529297 17.13814453 -5.875 18.375 C-6.72964844 19.20644531 -7.58429688 20.03789062 -8.46484375 20.89453125 C-14.79087131 27 -14.79087131 27 -16 27 C-16.64427344 22.18752347 -17.14594352 17.83940348 -14.5 13.59228516 C-12.43338312 11.35361839 -10.2878833 9.32405956 -8 7.3125 C-6.8553125 6.24225586 -6.8553125 6.24225586 -5.6875 5.15039062 C-3.81418984 3.40587054 -1.92046785 1.69222076 0 0 Z " fill="#1C1E1F" transform="translate(233,113)"/>
<path d="M0 0 C2.1438809 4.7089777 2.1438809 4.7089777 2 8 C-0.3916571 11.72741891 -3.54967573 14.53423523 -6.8125 17.5 C-7.67166016 18.32242188 -8.53082031 19.14484375 -9.41601562 19.9921875 C-15.74817016 26 -15.74817016 26 -17 26 C-18.12250697 22.00054923 -18.14940896 19.00703043 -17 15 C-13.73355261 10.47858995 -5.90978876 0 0 0 Z " fill="#1C1D1E" transform="translate(152,114)"/>
</svg>
