<svg xmlns="http://www.w3.org/2000/svg" width="200" height="200" viewBox="0 0 200 200" version="1.1"><path d="M 76.582 66.250 C 71.535 71.346, 58 95.930, 58 100 C 58 104.070, 71.535 128.654, 76.582 133.750 L 79.800 137 99 137 L 118.200 137 121.418 133.750 C 126.465 128.654, 140 104.070, 140 100 C 140 95.930, 126.465 71.346, 121.418 66.250 L 118.200 63 99 63 L 79.800 63 76.582 66.250" stroke="none" fill="#fcf3fb" fill-rule="evenodd"/><path d="M 86.500 16.384 C 75.685 21.497, 32.285 47.345, 28.733 50.788 C 26.661 52.796, 23.961 56.478, 22.733 58.970 C 20.546 63.407, 20.500 64.250, 20.500 100 C 20.500 135.750, 20.546 136.593, 22.733 141.030 C 26.385 148.439, 31.274 152.153, 57 167.058 C 89.327 185.787, 89.756 185.980, 99 185.980 C 108.244 185.980, 108.673 185.787, 141 167.058 C 166.726 152.153, 171.615 148.439, 175.267 141.030 C 177.454 136.593, 177.500 135.750, 177.500 100 C 177.500 64.250, 177.454 63.407, 175.267 58.970 C 174.039 56.478, 171.339 52.796, 169.267 50.788 C 165.715 47.345, 122.315 21.497, 111.500 16.384 C 104.472 13.061, 93.528 13.061, 86.500 16.384 M 76.582 66.250 C 71.535 71.346, 58 95.930, 58 100 C 58 104.070, 71.535 128.654, 76.582 133.750 L 79.800 137 99 137 L 118.200 137 121.418 133.750 C 126.465 128.654, 140 104.070, 140 100 C 140 95.930, 126.465 71.346, 121.418 66.250 L 118.200 63 99 63 L 79.800 63 76.582 66.250" stroke="none" fill="#fc0464" fill-rule="evenodd"/></svg>