<?xml version="1.0" encoding="UTF-8"?>
<svg version="1.1" xmlns="http://www.w3.org/2000/svg" width="352" height="348">
<path d="M0 0 C116.16 0 232.32 0 352 0 C352 114.84 352 229.68 352 348 C235.84 348 119.68 348 0 348 C0 233.16 0 118.32 0 0 Z " fill="#549AD7" transform="translate(0,0)"/>
<path d="M0 0 C116.16 0 232.32 0 352 0 C352 114.84 352 229.68 352 348 C235.84 348 119.68 348 0 348 C0 328.2 0 308.4 0 288 C19.1759113 287.93225042 38.35172554 287.87699923 57.52772617 287.84456348 C66.43169505 287.82910196 75.33558423 287.80802612 84.23950195 287.77368164 C92.00116958 287.74375739 99.76277947 287.7244198 107.52450317 287.71773452 C111.6333725 287.71382738 115.74207668 287.70466001 119.85089302 287.68280983 C123.72093419 287.66239682 127.5907427 287.65617588 131.4608326 287.66067696 C132.87856817 287.6598539 134.2963118 287.65391685 135.7140007 287.64238358 C145.84085504 287.56406322 151.76211461 288.58127689 160.125 294.375 C173.19725356 302.85672282 186.74085794 305.35675662 202.0625 305.3125 C203.18205078 305.32861328 204.30160156 305.34472656 205.45507812 305.36132812 C212.24835325 305.36531245 217.71939826 304.55876367 224 302 C225.31060639 301.55685963 226.62287681 301.11857816 227.9375 300.6875 C231.9863725 299.15310586 235.55570589 296.9924728 239.21484375 294.6953125 C241.4779052 293.31779684 243.75138357 292.01688933 246.0703125 290.73828125 C251.74647695 287.60490214 257.34056067 284.33471941 262.9375 281.0625 C263.95779297 280.46759766 264.97808594 279.87269531 266.02929688 279.25976562 C271.69453534 275.95172912 277.33643787 272.61023611 282.94360352 269.20458984 C285 268 285 268 288 266.5625 C306.04774414 257.16263326 318.8583458 241.81501913 325.1328125 222.515625 C325.85886279 219.68191414 326.48619702 216.87899522 327 214 C327.17175247 213.11415726 327.34350494 212.22831451 327.52046204 211.31562805 C328.05408991 207.62601076 328.14769286 204.01963109 328.14526367 200.30151367 C328.14862228 199.55431564 328.1519809 198.80711761 328.15544128 198.03727722 C328.16489645 195.58082389 328.1668917 193.12443912 328.16796875 190.66796875 C328.17118529 188.94932528 328.17454966 187.23068209 328.17805481 185.51203918 C328.18403263 181.91353725 328.18589611 178.31505928 328.18530273 174.71655273 C328.18520123 170.12367821 328.19884719 165.53095869 328.21607494 160.93812084 C328.22723784 157.38889369 328.22922062 153.83970349 328.22869301 150.29046059 C328.2298669 148.59812194 328.23425523 146.90578214 328.24202538 145.21346092 C328.30447798 132.97851723 328.30447798 132.97851723 326 121 C325.69320313 119.92492187 325.38640625 118.84984375 325.0703125 117.7421875 C323.19114619 112.04256737 321.24080238 107.05183901 318 102 C317.53464844 101.27039063 317.06929688 100.54078125 316.58984375 99.7890625 C307.84331946 86.32254684 296.55964599 78.94997847 282.70703125 71.14453125 C281.60746094 70.51933594 280.50789063 69.89414063 279.375 69.25 C278.35148437 68.67765625 277.32796875 68.1053125 276.2734375 67.515625 C275.14808594 66.76539062 275.14808594 66.76539062 274 66 C274 65.34 274 64.68 274 64 C272.9790625 63.87625 272.9790625 63.87625 271.9375 63.75 C268.1253093 62.77667472 265.35929671 61.04192545 262 59 C262 58.34 262 57.68 262 57 C261.27941406 56.88914063 260.55882812 56.77828125 259.81640625 56.6640625 C256.80763566 55.95464364 254.62539861 54.8912505 251.9375 53.375 C250.97585937 52.83746094 250.01421875 52.29992188 249.0234375 51.74609375 C247.01885332 50.58840754 245.02381089 49.41402896 243.0390625 48.22265625 C229.5956864 40.16015904 216.43187156 35.17023594 200.6875 34.625 C195.32665674 34.40293473 191.44825235 33.90460847 187.1171875 30.59375 C184.23894965 28.42710601 181.13262075 26.70238556 178 24.9375 C177.38874268 24.59050049 176.77748535 24.24350098 176.14770508 23.88598633 C159.6872336 14.57431651 139.89172963 10.34743427 121.0625 15.125 C119.36041122 15.7091019 117.67240205 16.33565624 116 17 C115.03578125 17.34417969 114.0715625 17.68835938 113.078125 18.04296875 C101.64081043 22.4892932 91.31227758 29.09540009 80.79980469 35.34912109 C77.14922865 37.50164945 73.45755039 39.57272619 69.75 41.625 C62.61553042 45.58901309 55.62538211 49.78353933 48.64746094 54.01611328 C47.84083008 54.50450684 47.03419922 54.99290039 46.203125 55.49609375 C45.48801758 55.93107178 44.77291016 56.3660498 44.03613281 56.81420898 C42.06009957 57.96499957 40.0565384 59.00149801 38 60 C38 60.66 38 61.32 38 62 C25.46 62 12.92 62 0 62 C0 41.54 0 21.08 0 0 Z " fill="#0A1428" transform="translate(0,0)"/>
<path d="M0 0 C1.87307831 0.17787552 1.87307831 0.17787552 3.78399658 0.35934448 C4.4462751 0.42273388 5.10855362 0.48612328 5.79090118 0.55143356 C9.23122122 0.83694362 12.6738898 0.9281445 16.12402344 1.01806641 C17.20702949 1.04808573 17.20702949 1.04808573 18.31191444 1.07871151 C20.59769292 1.14047348 22.88355075 1.19834595 25.16943359 1.25610352 C26.78610957 1.29924283 28.40277818 1.34265928 30.0194397 1.38633728 C34.22449971 1.49921807 38.42964754 1.60839582 42.63482666 1.71673584 C46.94590228 1.82848213 51.25688168 1.94382254 55.56787109 2.05883789 C63.98965726 2.28300886 72.4115399 2.50325806 80.83349609 2.72094727 C77.93760074 6.49666191 75.65715678 8.68286154 71.39599609 10.84594727 C68.57313593 12.29860131 65.81373405 13.73313906 63.11083984 15.40063477 C60.83349609 16.72094727 60.83349609 16.72094727 58.83349609 16.72094727 C58.83349609 17.38094727 58.83349609 18.04094727 58.83349609 18.72094727 C58.17349609 18.72094727 57.51349609 18.72094727 56.83349609 18.72094727 C56.83349609 19.38094727 56.83349609 20.04094727 56.83349609 20.72094727 C55.17508612 21.73458138 53.5067895 22.73207571 51.83349609 23.72094727 C43.61954009 30.96161584 39.28258973 39.9499133 34.83349609 49.72094727 C34.17349609 49.72094727 33.51349609 49.72094727 32.83349609 49.72094727 C32.64787109 51.17500977 32.64787109 51.17500977 32.45849609 52.65844727 C32.09043329 55.35051714 31.55716572 57.69676151 30.80883789 60.33935547 C29.08932053 68.03126395 29.56796665 76.04917884 29.60302734 83.88891602 C29.60422141 85.65529853 29.60467183 87.42168168 29.60441589 89.18806458 C29.60597358 92.87541729 29.61420986 96.56267194 29.62768555 100.25 C29.64471174 104.96747806 29.64849834 109.68484904 29.64774036 114.40235424 C29.64801267 118.04410314 29.65350297 121.68582881 29.66074181 125.32756996 C29.66391436 127.06703834 29.66589256 128.80650934 29.66663551 130.54598045 C29.66881201 132.97698805 29.67758331 135.40788379 29.68823242 137.83886719 C29.68777924 138.55121521 29.68732605 139.26356323 29.68685913 139.99749756 C29.71246937 144.01092752 30.10569227 147.7779961 30.83349609 151.72094727 C30.80584445 153.13872231 30.74587652 154.55642452 30.64599609 155.97094727 C30.56294079 164.23494971 35.13125173 171.55281944 38.88037109 178.68969727 C39.83349609 180.72094727 39.83349609 180.72094727 39.83349609 182.72094727 C40.49349609 182.72094727 41.15349609 182.72094727 41.83349609 182.72094727 C43.1775054 184.71378865 44.50890901 186.71514397 45.83349609 188.72094727 C49.24485816 192.40162739 52.96643836 195.54136646 56.83349609 198.72094727 C57.49349609 199.38094727 58.15349609 200.04094727 58.83349609 200.72094727 C63.39828747 203.81635318 68.02329443 206.81584643 72.95849609 209.28344727 C77.16600296 211.3872007 80.95567335 214.06925514 84.83349609 216.72094727 C86.31849609 217.71094727 86.31849609 217.71094727 87.83349609 218.72094727 C86.11898448 220.89683908 85.2685581 221.6617846 82.47802734 222.04125977 C72.96564582 221.38523345 65.29005497 217.83117829 56.83349609 213.72094727 C56.83349609 213.06094727 56.83349609 212.40094727 56.83349609 211.72094727 C55.92599609 211.43219727 55.01849609 211.14344727 54.08349609 210.84594727 C49.00435037 209.08778144 49.00435037 209.08778144 46.83349609 207.72094727 C46.50349609 206.73094727 46.17349609 205.74094727 45.83349609 204.72094727 C45.17349609 205.05094727 44.51349609 205.38094727 43.83349609 205.72094727 C41.95849609 204.72485352 41.95849609 204.72485352 39.83349609 203.28344727 C37.06968355 201.25894568 37.06968355 201.25894568 33.83349609 200.72094727 C33.83349609 200.06094727 33.83349609 199.40094727 33.83349609 198.72094727 C32.87443359 198.38063477 32.87443359 198.38063477 31.89599609 198.03344727 C29.2122918 196.88328828 26.66202585 195.64879316 24.08349609 194.28344727 C23.30490234 193.87223633 22.52630859 193.46102539 21.72412109 193.03735352 C19.83349609 191.72094727 19.83349609 191.72094727 18.83349609 188.72094727 C17.50318359 188.56625977 17.50318359 188.56625977 16.14599609 188.40844727 C11.78343097 187.50300922 8.96797196 185.85542313 5.83349609 182.72094727 C4.75068359 182.28782227 4.75068359 182.28782227 3.64599609 181.84594727 C0.14844755 180.44692785 -2.92015026 178.63056706 -6.16650391 176.72094727 C-6.16650391 176.06094727 -6.16650391 175.40094727 -6.16650391 174.72094727 C-7.28025391 174.38063477 -7.28025391 174.38063477 -8.41650391 174.03344727 C-11.71616908 172.45860707 -13.02628442 170.6459139 -15.16650391 167.72094727 C-15.86066406 167.0596582 -15.86066406 167.0596582 -16.56884766 166.38500977 C-20.10227425 162.70471703 -22.53302931 158.06376431 -25.16650391 153.72094727 C-25.56353516 153.09317383 -25.96056641 152.46540039 -26.36962891 151.81860352 C-33.53344552 139.28192443 -33.76588501 123.87594144 -33.66259766 109.86938477 C-33.66275327 108.11357564 -33.66425251 106.35776619 -33.66700745 104.60195923 C-33.66837874 100.95298757 -33.65604696 97.30441504 -33.63305664 93.65551758 C-33.6046335 89.02193403 -33.60743819 84.38900947 -33.62014675 79.75537682 C-33.62716139 76.13982696 -33.61925 72.52442458 -33.60688972 68.90889359 C-33.60243416 67.20198765 -33.6019856 65.49506555 -33.60595512 63.78815842 C-33.63475717 40.52510776 -28.48656896 22.33008245 -12.24462891 4.74438477 C-7.97966806 0.59165973 -6.10831322 -0.68399667 0 0 Z " fill="#93C1E5" transform="translate(44.16650390625,61.279052734375)"/>
<path d="M0 0 C3.16068544 1.91290179 5.52974331 4.27231079 8 7 C8.52980469 7.55945313 9.05960938 8.11890625 9.60546875 8.6953125 C13 12.47969188 13 12.47969188 13 16 C13.82757813 16.309375 13.82757813 16.309375 14.671875 16.625 C17.86776619 18.51250621 19.93571998 21.16094452 22.25 24 C22.73525146 24.58378418 23.22050293 25.16756836 23.72045898 25.76904297 C26.54851147 29.18399689 29.31521241 32.64472936 32.0625 36.125 C34.90769471 39.72076755 37.89518568 43.12581822 41 46.5 C44.75528128 50.58579162 48.29686167 54.76047412 51.7265625 59.12109375 C54.67862112 62.85935355 57.68216199 66.55452549 60.6875 70.25 C61.23446533 70.92377686 61.78143066 71.59755371 62.3449707 72.29174805 C62.87437256 72.94312744 63.40377441 73.59450684 63.94921875 74.265625 C64.4601709 74.89533203 64.97112305 75.52503906 65.49755859 76.17382812 C66.48699781 77.37646142 67.48972497 78.56830321 68.50634766 79.74804688 C72 83.80328878 72 83.80328878 72 86 C72.99 86 73.98 86 75 86 C75 65.21 75 44.42 75 23 C70.79595929 25.52242442 67.55265395 28.09928617 64.0625 31.4375 C60.24384193 35.08862985 56.4235483 38.07028461 52 41 C51.505 41.99 51.505 41.99 51 43 C49.35 43 47.7 43 46 43 C46.55275916 39.34670667 47.43396328 36.94761051 49.5625 33.9375 C50.10132813 33.16148437 50.64015625 32.38546875 51.1953125 31.5859375 C51.79085937 30.73257813 52.38640625 29.87921875 53 29 C54.31608174 27.02321326 55.62842806 25.04393574 56.9375 23.0625 C71.0296155 1.9512201 71.0296155 1.9512201 74.8125 0.125 C75.534375 0.08375 76.25625 0.0425 77 0 C78.258125 -0.185625 79.51625 -0.37125 80.8125 -0.5625 C84.28312456 -0.4375792 86.15401458 0.37167236 88.71020508 2.72802734 C94.57227486 9.87288178 92.93399372 20.20060925 92.82421875 28.9140625 C92.82131291 30.9733358 92.8209301 33.03261407 92.82295227 35.09188843 C92.81974208 39.3976176 92.79285028 43.70232192 92.74780273 48.0078125 C92.69106407 53.52042696 92.68295167 59.0317673 92.69121075 64.54462624 C92.69401073 68.79297659 92.67639175 73.04104369 92.65207863 77.28931808 C92.64188376 79.32183311 92.63677105 81.35438033 92.63687706 83.38692093 C92.63290134 86.22809019 92.60272582 89.06779268 92.56518555 91.90869141 C92.57026123 93.16190941 92.57026123 93.16190941 92.57543945 94.44044495 C92.46723177 99.84018635 91.55344418 102.86479347 88 107 C87.34 107 86.68 107 86 107 C85.505 108.485 85.505 108.485 85 110 C75.3915394 110.61548858 75.3915394 110.61548858 70.75 108.5625 C67.7934335 105.80751758 65.45871903 102.93081204 63.05078125 99.6953125 C60.6338818 96.51881608 58.08571565 93.47694218 55.5 90.4375 C55.02304688 89.87579102 54.54609375 89.31408203 54.0546875 88.73535156 C51.50094051 85.73663351 48.92229225 82.76269993 46.3125 79.8125 C43.16194769 76.23740518 40.2093489 72.52292849 37.25 68.7890625 C34.18381777 64.98827411 31.02566285 61.26895763 27.85644531 57.55395508 C25.79761552 55.13786658 23.76791466 52.70886821 21.7890625 50.2265625 C20.07003104 47.99204782 20.07003104 47.99204782 18.125 46.1875 C15.74377659 43.73624061 13.80985651 41.11641082 11.79296875 38.36328125 C8.9163916 34.57171441 5.82695469 30.95668889 2.7578125 27.3203125 C1 25 1 25 1 23 C0.01 23 -0.98 23 -2 23 C-2 43.79 -2 64.58 -2 86 C-0.35 85.01 1.3 84.02 3 83 C4.485 82.505 4.485 82.505 6 82 C6.30421875 81.39027344 6.6084375 80.78054687 6.921875 80.15234375 C8.26706598 77.46683567 9.84131021 76.33624605 12.25 74.5625 C15.04818648 72.47510687 17.76021162 70.37507666 20.375 68.0625 C23 66 23 66 26 66 C26.4691942 70.59316428 25.2484694 72.55128179 22.4375 76.125 C19.65642473 79.77303044 17.03923822 83.41169028 14.625 87.3125 C11.81174392 91.78402858 8.89629669 96.16731054 5.875 100.5 C5.46717285 101.09981689 5.0593457 101.69963379 4.63916016 102.31762695 C2.14865368 105.84626339 -0.07603118 108.15904709 -4 110 C-7.58057666 110.59676278 -9.86281507 110.73781641 -12.96875 108.72265625 C-17.56459436 104.87081129 -17.56459436 104.87081129 -19 102 C-19.10910758 99.06688623 -19.15733672 96.15715553 -19.16113281 93.22338867 C-19.16609772 92.31429245 -19.17106262 91.40519623 -19.17617798 90.46855164 C-19.1908202 87.45168306 -19.19760529 84.43486707 -19.203125 81.41796875 C-19.20887509 79.3253021 -19.21463284 77.23263548 -19.22039795 75.13996887 C-19.23091403 70.74752557 -19.23675261 66.35510061 -19.24023438 61.96264648 C-19.24571809 56.33341397 -19.26974103 50.70442346 -19.29820633 45.07526684 C-19.31682826 40.75070996 -19.32203809 36.4262114 -19.32357025 32.10161781 C-19.32659869 30.02637726 -19.33463362 27.95113778 -19.34775543 25.87593651 C-19.36480525 22.9720354 -19.36293812 20.06872575 -19.35644531 17.16479492 C-19.3656601 16.30694397 -19.37487488 15.44909302 -19.3843689 14.56524658 C-19.35157332 9.88416767 -19.04656166 6.79543002 -16 3 C-11.11426011 -0.45576724 -5.79868305 -1.25473822 0 0 Z " fill="#F8FCFC" transform="translate(168,118)"/>
<path d="M0 0 C0.87720703 -0.00773438 1.75441406 -0.01546875 2.65820312 -0.0234375 C14.07602869 0.01021858 24.05543282 2.80090884 34.1875 7.9375 C35.22886108 8.4627124 35.22886108 8.4627124 36.29125977 8.99853516 C53.9299718 17.98494361 53.9299718 17.98494361 55.5625 21.25 C54.73226318 21.4833606 54.73226318 21.4833606 53.88525391 21.72143555 C39.27571039 25.84517879 39.27571039 25.84517879 25.5625 32.25 C24.16932856 32.92221163 22.77355314 33.58905806 21.375 34.25 C18.70490655 35.56368598 16.46407388 37.04022187 14.125 38.875 C10.28107163 41.76684426 6.25020407 42.53780913 1.5625 43.25 C1.5625 43.91 1.5625 44.57 1.5625 45.25 C-1.05713389 46.55981695 -3.33289711 46.62321553 -6.25 46.875 C-7.28769531 46.97039063 -8.32539063 47.06578125 -9.39453125 47.1640625 C-12.4375 47.25 -12.4375 47.25 -14.72216797 46.76367188 C-17.84218229 46.17344439 -20.75031461 46.12036047 -23.92578125 46.1171875 C-25.80910156 46.11440796 -25.80910156 46.11440796 -27.73046875 46.11157227 C-29.07031361 46.11570277 -30.41015742 46.12018549 -31.75 46.125 C-32.76900391 46.12583084 -32.76900391 46.12583084 -33.80859375 46.12667847 C-41.2056067 46.13377921 -48.56142861 46.21902299 -55.9375 46.8125 C-62.42325622 47.30644832 -68.8187859 47.23273655 -75.3125 47 C-76.28380859 46.97365479 -77.25511719 46.94730957 -78.25585938 46.92016602 C-79.15884766 46.87947998 -80.06183594 46.83879395 -80.9921875 46.796875 C-81.80155762 46.76432617 -82.61092773 46.73177734 -83.44482422 46.69824219 C-85.4375 46.25 -85.4375 46.25 -87.4375 43.25 C-83.71916772 39.89150633 -80.03076591 38.08064026 -75.42578125 36.27734375 C-73.11053388 35.2845059 -73.11053388 35.2845059 -71.4375 32.25 C-72.0975 31.92 -72.7575 31.59 -73.4375 31.25 C-61.87200616 24.43857697 -50.2957158 17.64458884 -38.5625 11.125 C-37.78680664 10.68889404 -37.01111328 10.25278809 -36.21191406 9.8034668 C-24.43151256 3.31307971 -13.46950903 -0.11824002 0 0 Z " fill="#737983" transform="translate(137.4375,12.75)"/>
<path d="M0 0 C2.25 -0.25 2.25 -0.25 5 0 C6.37562854 1.28965176 7.70766393 2.62689293 9 4 C11.3596916 5.12085351 13.42011417 5.90939284 16 6.3125 C18 7 18 7 20.1875 9.25 C23.73103533 12.7147901 27.61731526 14.7561418 32 17 C32 17.66 32 18.32 32 19 C32.99 18.67 33.98 18.34 35 18 C36.71875 18.99609375 36.71875 18.99609375 38.5 20.4375 C41.31914575 22.75172411 41.31914575 22.75172411 45 23 C45 23.99 45 24.98 45 26 C46.0828125 26.433125 46.0828125 26.433125 47.1875 26.875 C49.79166667 27.91666667 52.39583333 28.95833333 55 30 C55 30.66 55 31.32 55 32 C55.56847656 32.18175781 56.13695313 32.36351562 56.72265625 32.55078125 C60.38692326 33.74365615 63.84449019 34.92371217 67.3125 36.625 C72.39377725 38.51971355 77.57366049 39.17291825 83 39 C83.99 38.01 83.99 38.01 85 37 C83.02 35.02 83.02 35.02 81 33 C86.19822672 34.36144033 89.09543873 36.46730171 93 40 C91 42 91 42 87.4375 42.25 C83.15493478 42.16975488 79.01960355 41.59544876 74.78149414 40.99658203 C62.91047809 39.49484128 51.00263762 39.75092266 39.05859375 39.8046875 C36.59424455 39.80842603 34.12989384 39.81126902 31.6655426 39.81326294 C25.23609177 39.8208333 18.8067339 39.84042379 12.37731934 39.8626709 C5.79387672 39.88327284 -0.78958119 39.89229509 -7.37304688 39.90234375 C-20.24874495 39.92367701 -33.12435014 39.958804 -46 40 C-46 28.12 -46 16.24 -46 4 C-29.5 4 -13 4 4 4 C4 3.34 4 2.68 4 2 C2.68 1.67 1.36 1.34 0 1 C0 0.67 0 0.34 0 0 Z " fill="#549DD9" transform="translate(46,243)"/>
<path d="M0 0 C5.14452682 0.62528477 10.15773642 0.49604646 15.33677673 0.31332397 C18.83558793 0.44708976 21.41579999 1.00141371 24.60630798 2.43832397 C24.93630798 3.42832397 25.26630798 4.41832397 25.60630798 5.43832397 C-23.89369202 5.10832397 -73.39369202 4.77832397 -124.39369202 4.43832397 C-124.39369202 2.78832397 -124.39369202 1.13832397 -124.39369202 -0.56167603 C-110.2148314 -0.73999217 -96.03586884 -0.9054118 -81.85669041 -1.0564518 C-75.27120263 -1.12696882 -68.6858116 -1.20144998 -62.10047913 -1.28530884 C-55.733336 -1.36623808 -49.36615365 -1.43633867 -42.99880791 -1.4992485 C-40.58177814 -1.52497108 -38.16478508 -1.55445334 -35.74785042 -1.58794022 C-23.69916322 -1.75250033 -11.93708471 -1.77646163 0 0 Z " fill="#4174B0" transform="translate(124.39369201660156,283.5616760253906)"/>
<path d="M0 0 C-0.99 0.33 -1.98 0.66 -3 1 C-3.33 1.99 -3.66 2.98 -4 4 C-6.72265625 5.60546875 -6.72265625 5.60546875 -10.0625 7.1875 C-11.16722656 7.71730469 -12.27195312 8.24710938 -13.41015625 8.79296875 C-14.26480469 9.19128906 -15.11945312 9.58960938 -16 10 C-16 10.99 -16 11.98 -16 13 C2.4600516 13.97917269 2.4600516 13.97917269 20.91577148 13.41088867 C28.2535342 12.9000794 35.58402441 12.88197497 42.9375 12.875 C44.79834229 12.86835327 44.79834229 12.86835327 46.69677734 12.86157227 C48.43822021 12.86435181 48.43822021 12.86435181 50.21484375 12.8671875 C51.77900024 12.86887939 51.77900024 12.86887939 53.37475586 12.87060547 C56 13 56 13 59 14 C61.06587115 13.91426773 63.12946525 13.76166465 65.1875 13.5625 C66.27417969 13.46066406 67.36085938 13.35882813 68.48046875 13.25390625 C69.72763672 13.12822266 69.72763672 13.12822266 71 13 C71 12.34 71 11.68 71 11 C72.8125 9.9375 72.8125 9.9375 75 9 C75.99 9.33 76.98 9.66 78 10 C76.35 10.66 74.7 11.32 73 12 C73 12.66 73 13.32 73 14 C69.37 14.99 65.74 15.98 62 17 C62 17.66 62 18.32 62 19 C53.18064684 20.08403708 44.52188258 19.99208343 35.65625 19.6953125 C34.19618166 19.65095301 32.7360982 19.6070887 31.27600098 19.56369019 C28.2334977 19.47187088 25.19117885 19.37563862 22.14892578 19.27587891 C18.27969311 19.14913888 14.41025683 19.0311693 10.54065704 18.91624641 C7.5308582 18.82627609 4.52117653 18.73279391 1.51152039 18.63817978 C0.08601821 18.593551 -1.3395085 18.54969777 -2.76506042 18.50668716 C-25.79550494 17.80299671 -25.79550494 17.80299671 -30 15 C-4.54443823 -2.27221912 -4.54443823 -2.27221912 0 0 Z " fill="#8BA3BD" transform="translate(68,45)"/>
<path d="M0 0 C2.8125 2.5625 2.8125 2.5625 5 5 C5.99 5.33 6.98 5.66 8 6 C8 6.66 8 7.32 8 8 C-8.5 8 -25 8 -42 8 C-42 5.03 -42 2.06 -42 -1 C-41.18321777 -0.99476318 -40.36643555 -0.98952637 -39.52490234 -0.98413086 C-35.80827612 -0.96328651 -32.09166222 -0.95031608 -28.375 -0.9375 C-27.08980469 -0.92912109 -25.80460937 -0.92074219 -24.48046875 -0.91210938 C-23.23652344 -0.90888672 -21.99257813 -0.90566406 -20.7109375 -0.90234375 C-18.99849854 -0.89448853 -18.99849854 -0.89448853 -17.25146484 -0.88647461 C-3.21834973 -1.37644296 -3.21834973 -1.37644296 0 0 Z " fill="#4680CC" transform="translate(42,239)"/>
<path d="M0 0 C-0.42410156 0.43828125 -0.84820313 0.8765625 -1.28515625 1.328125 C-5.88348064 6.30037906 -9.15304995 11.48188416 -12.32421875 17.4609375 C-14.10394918 20.15749875 -15.16155156 20.69829116 -18 22 C-18.81584568 25.05908413 -18.81584568 25.05908413 -19 28 C-19.66 27.34 -20.32 26.68 -21 26 C-21.33 27.98 -21.66 29.96 -22 32 C-22.99 32 -23.98 32 -25 32 C-25 22.43 -25 12.86 -25 3 C-24.01 3 -23.02 3 -22 3 C-21.67 2.01 -21.34 1.02 -21 0 C-18.06281233 -0.19461488 -15.12550068 -0.38097593 -12.1875 -0.5625 C-11.35412109 -0.61857422 -10.52074219 -0.67464844 -9.66210938 -0.73242188 C-8.85966797 -0.78076172 -8.05722656 -0.82910156 -7.23046875 -0.87890625 C-6.49207764 -0.9260376 -5.75368652 -0.97316895 -4.99291992 -1.02172852 C-3 -1 -3 -1 0 0 Z " fill="#559EDA" transform="translate(32,67)"/>
<path d="M0 0 C-2.26849915 2.64777503 -3.76378514 3.37810687 -7.1875 3.875 C-11.55621373 4.71186399 -14.50269674 6.35218583 -18.1484375 8.8359375 C-20.61302911 10.38540648 -23.24372422 11.10260789 -26 12 C-26.495 12.495 -26.99 12.99 -27.5 13.5 C-29.64488308 15.64488308 -32.1518895 16.05062983 -35 17 C-36.02019573 17.9793879 -37.02149805 18.97895449 -38 20 C-39.66666667 20.66666667 -41.33333333 21.33333333 -43 22 C-43.45375 22.495 -43.9075 22.99 -44.375 23.5 C-46 25 -46 25 -49.375 25.9375 C-53.19829075 27.0581197 -54.96692347 28.51132182 -58 31 C-60 31.66666667 -62 32.33333333 -64 33 C-65.7074998 34.28062485 -67.37373596 35.61767557 -69 37 C-72.10786664 39.2295565 -74.8789233 40.95156932 -78.4375 42.375 C-84.23399674 45.01901606 -88.19488289 48.29266557 -91 54 C-92.10345709 55.40923436 -93.252033 56.78402013 -94.4375 58.125 C-95.33275391 59.14980469 -95.33275391 59.14980469 -96.24609375 60.1953125 C-98 62 -98 62 -101 64 C-102.08301035 66.29598193 -103.07796291 68.63477442 -104 71 C-104.37125 71.86625 -104.7425 72.7325 -105.125 73.625 C-106.08558443 76.02208631 -106.08558443 76.02208631 -106.5 78.75 C-106.665 79.4925 -106.83 80.235 -107 81 C-107.99 81.495 -107.99 81.495 -109 82 C-108.95875 83.051875 -108.9175 84.10375 -108.875 85.1875 C-108.99536915 88.85875922 -109.59760614 90.70024975 -111 94 C-111.3813074 96.32597511 -111.72460254 98.65912158 -112 101 C-112.33 101 -112.66 101 -113 101 C-113.72843014 91.44947153 -111.5571371 83.09838514 -109 74 C-108.34 74 -107.68 74 -107 74 C-106.88269531 73.278125 -106.76539062 72.55625 -106.64453125 71.8125 C-104.74232903 63.51198124 -99.43774122 56.96852019 -93.8125 50.8125 C-93.28938232 50.23564453 -92.76626465 49.65878906 -92.22729492 49.06445312 C-90.88410986 47.64426195 -89.44744487 46.31377031 -88 45 C-87.01 45 -86.02 45 -85 45 C-85 44.34 -85 43.68 -85 43 C-84.34 43 -83.68 43 -83 43 C-83 42.34 -83 41.68 -83 41 C-82.05898437 40.46890625 -81.11796875 39.9378125 -80.1484375 39.390625 C-78.89055828 38.67720096 -77.63274953 37.96365265 -76.375 37.25 C-75.75753906 36.90195313 -75.14007813 36.55390625 -74.50390625 36.1953125 C-67.31971748 32.18991085 -67.31971748 32.18991085 -61 27 C-58.375 26.875 -58.375 26.875 -56 27 C-56 26.34 -56 25.68 -56 25 C-54.54293274 24.49632243 -53.08429904 23.99717444 -51.625 23.5 C-50.81289062 23.2215625 -50.00078125 22.943125 -49.1640625 22.65625 C-47 22 -47 22 -45 22 C-45 21.34 -45 20.68 -45 20 C-42.86197093 18.4445238 -40.73934136 17.02069175 -38.5 15.625 C-37.53151123 15.01338013 -37.53151123 15.01338013 -36.54345703 14.3894043 C-32.80604587 12.05363979 -29.06662683 9.8371567 -25.0703125 7.96875 C-21.23965954 6.17629352 -17.49915187 4.19580957 -13.734375 2.26953125 C-8.98626688 0.06505248 -5.24304707 -0.10082783 0 0 Z " fill="#6CB7DB" transform="translate(186,37)"/>
<path d="M0 0 C4.11944411 4.11944411 3.15198409 11.14344902 3.16113281 16.70092773 C3.16609772 17.43702774 3.17106262 18.17312775 3.17617798 18.93153381 C3.19069015 21.34889696 3.19758588 23.76619433 3.203125 26.18359375 C3.20595238 27.0177437 3.20877975 27.85189365 3.21169281 28.71132088 C3.22664676 33.13233883 3.23589815 37.55332451 3.24023438 41.97436523 C3.24569024 46.49596757 3.26966777 51.01726441 3.29820633 55.53877163 C3.31702321 59.05396831 3.32204848 62.56909449 3.32357025 66.08433723 C3.32655839 67.74857298 3.33445331 69.41280868 3.34775543 71.07699394 C3.45105715 85.00310434 2.9385665 99.35699059 -4 111.8125 C-4.51433594 112.81120117 -4.51433594 112.81120117 -5.0390625 113.83007812 C-6.68847804 116.95578353 -8.27446088 119.70884367 -11 122 C-10.08443549 118.47859802 -9.25861878 115.49067671 -7.5546875 112.2578125 C-5.78511227 108.54970761 -4.84799824 104.98670833 -3.9375 101 C-2.16499583 93.42592597 -2.16499583 93.42592597 -0.95388794 90.29953003 C0.22896847 86.20799045 0.26548683 82.56573376 0.22705078 78.33251953 C0.22734283 77.48308273 0.22763489 76.63364594 0.22793579 75.75846863 C0.22654869 72.96647731 0.21101678 70.17475688 0.1953125 67.3828125 C0.19158017 65.4408279 0.18873423 63.49884141 0.18673706 61.55685425 C0.17911798 56.45722207 0.1594843 51.35770466 0.1373291 46.25811768 C0.1168335 41.04969841 0.10772741 35.84126051 0.09765625 30.6328125 C0.07623678 20.42182471 0.04212166 10.21092191 0 0 Z " fill="#365D95" transform="translate(326,121)"/>
<path d="M0 0 C-1.65 0.66 -3.3 1.32 -5 2 C-5 2.66 -5 3.32 -5 4 C-13.70471877 7.78019915 -22.34960223 7.43728897 -31.65234375 7.3984375 C-33.36104964 7.4004609 -35.06975469 7.40337456 -36.77845764 7.40713501 C-40.34140326 7.41153747 -43.90412193 7.4051891 -47.46704102 7.39111328 C-52.03933748 7.37393112 -56.61110909 7.38393223 -61.1833868 7.40183067 C-64.70319105 7.41264733 -68.22286975 7.40923355 -71.74267769 7.4014473 C-73.42963282 7.39944412 -75.11659929 7.4019087 -76.80354118 7.40888596 C-79.15180846 7.41647573 -81.49920967 7.4049363 -83.84741211 7.38818359 C-84.54608902 7.39425629 -85.24476593 7.40032898 -85.96461487 7.40658569 C-87.89683533 7.38095093 -87.89683533 7.38095093 -91 7 C-91.66 6.01 -92.32 5.02 -93 4 C-90.04463505 3.01487835 -88.56376199 2.95099888 -85.52734375 3.15625 C-84.19292236 3.23661499 -84.19292236 3.23661499 -82.83154297 3.31860352 C-81.87650879 3.37846436 -80.92147461 3.4383252 -79.9375 3.5 C-73.03628623 3.87544304 -66.26970728 4.0695357 -59.375 3.5625 C-51.26928463 2.9730968 -43.18867205 2.88272548 -35.0625 2.875 C-33.82226074 2.87056885 -32.58202148 2.8661377 -31.30419922 2.86157227 C-30.14291504 2.86342529 -28.98163086 2.86527832 -27.78515625 2.8671875 C-26.22099976 2.86887939 -26.22099976 2.86887939 -24.62524414 2.87060547 C-22 3 -22 3 -19 4 C-16.93412885 3.91426773 -14.87053475 3.76166465 -12.8125 3.5625 C-11.72582031 3.46066406 -10.63914062 3.35882813 -9.51953125 3.25390625 C-8.68808594 3.17011719 -7.85664063 3.08632813 -7 3 C-7 2.34 -7 1.68 -7 1 C-3.375 -1.125 -3.375 -1.125 0 0 Z " fill="#8092A8" transform="translate(146,55)"/>
<path d="M0 0 C0.33 3.3 0.66 6.6 1 10 C0.34 9.34 -0.32 8.68 -1 8 C-2.85024358 11.99124097 -3.35887991 15.41181705 -3.60522461 19.79125977 C-3.64253409 20.44461335 -3.67984358 21.09796694 -3.71828365 21.77111912 C-4.11871998 29.28882361 -4.22764323 36.8132858 -4.31640625 44.33984375 C-4.3370524 45.84298675 -4.35805038 47.34612495 -4.37937927 48.84925842 C-4.43381115 52.75019369 -4.4835582 56.6511742 -4.53222656 60.55218506 C-4.5830288 64.55501185 -4.63840398 68.55777533 -4.69335938 72.56054688 C-4.79997153 80.37364386 -4.90161943 88.18679456 -5 96 C-5.66 96 -6.32 96 -7 96 C-7.06995815 86.21955409 -7.12304139 76.43916913 -7.15543652 66.65852261 C-7.17099592 62.1154379 -7.19205304 57.5725262 -7.22631836 53.02954102 C-7.2592631 48.63340147 -7.27692582 44.23742678 -7.28463173 39.84117317 C-7.29011299 38.1761014 -7.30081342 36.51103716 -7.31719017 34.84603691 C-7.42718561 23.18366476 -6.72234239 12.16702718 -3 1 C-1 0 -1 0 0 0 Z " fill="#A9D4F1" transform="translate(18,90)"/>
<path d="M0 0 C2.2177124 0.00462341 2.2177124 0.00462341 5.05371094 0.34155273 C10.0588891 0.84739917 15.03601213 1.15979124 20.06347656 1.29711914 C21.14389284 1.32725932 21.14389284 1.32725932 22.24613571 1.35800838 C24.54423779 1.41969577 26.84241892 1.47748589 29.140625 1.53515625 C30.76016007 1.57827208 32.37968716 1.62168866 33.99920654 1.66539001 C38.22073042 1.77850972 42.44234878 1.88759763 46.66400146 1.99578857 C50.98830629 2.10734337 55.3125071 2.22279053 59.63671875 2.33789062 C68.0910499 2.56236034 76.54548508 2.7825623 85 3 C84.67 3.66 84.34 4.32 84 5 C83.18917969 4.98839844 82.37835938 4.97679688 81.54296875 4.96484375 C75.06969089 4.91209294 68.76823468 5.09589923 62.33984375 5.87890625 C60 6 60 6 58.14282227 5.51147461 C55.8015417 4.95262958 53.77949679 4.90225493 51.375 4.9375 C50.06789063 4.94910156 50.06789063 4.94910156 48.734375 4.9609375 C47.83203125 4.97382812 46.9296875 4.98671875 46 5 C44.20839502 5.02559436 42.41671721 5.04659718 40.625 5.0625 C39.83351562 5.07410156 39.04203125 5.08570312 38.2265625 5.09765625 C36.01511983 5.00066315 34.13584246 4.54645051 32 4 C29.78803738 4.34230983 29.78803738 4.34230983 27.5625 5 C23.89657477 5.8926766 21.68879173 5.8997053 18 5 C14.66518696 4.89910597 11.33550213 4.94686811 8 5 C7.34 5 6.68 5 6 5 C4.45721239 5.15594965 2.91562095 5.32392903 1.375 5.5 C0.14910156 5.63921875 0.14910156 5.63921875 -1.1015625 5.78125 C-1.72804687 5.8534375 -2.35453125 5.925625 -3 6 C-2.42655063 3.13275314 -2.1385485 2.1385485 0 0 Z " fill="#95B1CF" transform="translate(40,61)"/>
<path d="M0 0 C2.31 0.66 4.62 1.32 7 2 C8.051875 2.1546875 8.051875 2.1546875 9.125 2.3125 C12.09284323 3.40070918 13.81649195 5.76323565 16 8 C17.63377642 9.05287814 19.29181597 10.0727001 21 11 C18 11 18 11 15 10 C15 17.59 15 25.18 15 33 C14.01 33 13.02 33 12 33 C11.9906543 32.25838623 11.98130859 31.51677246 11.97167969 30.75268555 C11.91804249 27.39694286 11.83438207 24.04260438 11.75 20.6875 C11.73582031 19.52025391 11.72164062 18.35300781 11.70703125 17.15039062 C11.67480469 16.03212891 11.64257812 14.91386719 11.609375 13.76171875 C11.58842773 12.73006592 11.56748047 11.69841309 11.54589844 10.63549805 C11.23063522 7.90423455 11.23063522 7.90423455 9.21191406 6.20239258 C6.80332531 4.77357241 6.80332531 4.77357241 3 4 C3 13.57 3 23.14 3 33 C2.01 32.67 1.02 32.34 0 32 C0 21.44 0 10.88 0 0 Z " fill="#61B2E7" transform="translate(53,247)"/>
<path d="M0 0 C0.66 0.33 1.32 0.66 2 1 C1.18860062 1.46508972 0.37720123 1.93017944 -0.45878601 2.40936279 C-4.16843911 6.19116369 -3.70833595 9.33540975 -3.65942383 14.45019531 C-3.66990753 15.40662933 -3.68039124 16.36306335 -3.69119263 17.34848022 C-3.7199857 20.50869009 -3.71364593 23.66780723 -3.70703125 26.828125 C-3.72014366 29.01960629 -3.73544647 31.21107547 -3.75285339 33.40252686 C-3.79276939 39.16966096 -3.80289814 44.93647939 -3.80688477 50.70373535 C-3.8162037 56.58904639 -3.85360949 62.47417098 -3.88867188 68.359375 C-3.95331508 79.90624124 -3.9865 91.45296866 -4 103 C-6.63952759 100.36047241 -6.24980009 98.43408631 -6.28216553 94.84133911 C-6.27968811 93.97741547 -6.27721069 93.11349182 -6.2746582 92.22338867 C-6.27976913 91.31429245 -6.28488007 90.40519623 -6.29014587 89.46855164 C-6.3040896 86.4516244 -6.30308117 83.43492446 -6.30078125 80.41796875 C-6.30466627 78.32530125 -6.30900054 76.23263455 -6.31376648 74.13996887 C-6.3212395 69.74750212 -6.32093011 65.35511571 -6.31567383 60.96264648 C-6.30988544 55.33339187 -6.32678981 49.70446695 -6.3500185 44.07526684 C-6.36475283 39.75069759 -6.36562781 35.42620772 -6.36250877 31.10161781 C-6.36302239 29.02638408 -6.36826765 26.95114595 -6.37832069 24.87593651 C-6.39065835 21.97200532 -6.38390871 19.06871586 -6.37231445 16.16479492 C-6.37995819 15.30694397 -6.38760193 14.44909302 -6.39547729 13.56524658 C-6.35425182 8.89327246 -6.06058329 5.77407491 -3 2 C-2.01 1.34 -1.02 0.68 0 0 Z " fill="#C8E6F4" transform="translate(155,119)"/>
<path d="M0 0 C4.01907442 4.01907442 3.15970989 9.42500814 3.17700195 14.80419922 C3.18357315 15.69247406 3.19014435 16.5807489 3.19691467 17.49594116 C3.21660787 20.43219084 3.22829988 23.36838952 3.23828125 26.3046875 C3.24235678 27.30852604 3.2464323 28.31236458 3.25063133 29.34662247 C3.27147261 34.65734907 3.28578414 39.96804997 3.29516602 45.27880859 C3.30624138 50.7622313 3.34065997 56.24524945 3.38033772 61.72852898 C3.40648005 65.947609 3.41485562 70.16659211 3.41844749 74.385746 C3.42331764 76.40714381 3.43494378 78.42853717 3.45348549 80.4498558 C3.47783162 83.27923491 3.47692044 86.10755994 3.4699707 88.93701172 C3.48278076 89.76942383 3.49559082 90.60183594 3.50878906 91.45947266 C3.46008552 96.90628736 2.44059405 99.75114728 -1 104 C-1.33 103.01 -1.66 102.02 -2 101 C-1.34 101 -0.68 101 0 101 C0 67.67 0 34.34 0 0 Z " fill="#3C77B2" transform="translate(259,123)"/>
<path d="M0 0 C0.66 0.33 1.32 0.66 2 1 C2.09271225 13.02200339 2.16377146 25.04392161 2.20724869 37.06620979 C2.22811644 42.64876058 2.25641969 48.23106663 2.30175781 53.81347656 C2.34524388 59.20161212 2.36914322 64.58951239 2.37950897 69.97780991 C2.38689533 72.03271056 2.40131919 74.08759845 2.42292023 76.14239883 C2.45199056 79.02246094 2.45595444 81.90155288 2.45410156 84.78173828 C2.46848267 85.62978531 2.48286377 86.47783234 2.49768066 87.35157776 C2.45947867 92.84542344 1.48141766 95.72003223 -2 100 C-2.33 98.68 -2.66 97.36 -3 96 C-2.34 96 -1.68 96 -1 96 C-0.67 64.32 -0.34 32.64 0 0 Z " fill="#B2D2EA" transform="translate(258,125)"/>
<path d="M0 0 C0.66 0 1.32 0 2 0 C2 1.65 2 3.3 2 5 C1.34 5 0.68 5 0 5 C0 5.66 0 6.32 0 7 C-0.66 7 -1.32 7 -2 7 C-2 7.99 -2 8.98 -2 10 C-2.66 10 -3.32 10 -4 10 C-4.20625 10.680625 -4.4125 11.36125 -4.625 12.0625 C-6.18264684 15.39020007 -8.1820744 17.58921811 -10.6171875 20.30078125 C-12.30464637 22.37435359 -13.05920748 24.51361977 -14 27 C-15.33333333 28.33333333 -16.66666667 29.66666667 -18 31 C-18.309375 31.78375 -18.61875 32.5675 -18.9375 33.375 C-20.39186606 36.96813967 -22.35235482 39.15862468 -25 42 C-28.92296433 43.30765478 -31.86002433 43.1971417 -36 43 C-36.66 42.34 -37.32 41.68 -38 41 C-37.40832031 40.91363281 -36.81664062 40.82726562 -36.20703125 40.73828125 C-35.41683594 40.59777344 -34.62664062 40.45726562 -33.8125 40.3125 C-32.64654297 40.12107422 -32.64654297 40.12107422 -31.45703125 39.92578125 C-25.44338831 37.65990943 -22.10874429 31.51480861 -18.6875 26.375 C-17.72390398 24.94837519 -16.75905263 23.5225975 -15.79296875 22.09765625 C-15.32165527 21.40172363 -14.8503418 20.70579102 -14.36474609 19.98876953 C-11.88277406 16.37192799 -9.27294902 12.85237845 -6.65625 9.33203125 C-4.94338588 6.98637344 -4.94338588 6.98637344 -3.40625 4.32421875 C-2 2 -2 2 0 0 Z " fill="#4C83BA" transform="translate(195,187)"/>
<path d="M0 0 C-2.26849915 2.64777503 -3.76378514 3.37810687 -7.1875 3.875 C-11.55621373 4.71186399 -14.50269674 6.35218583 -18.1484375 8.8359375 C-20.61302911 10.38540648 -23.24372422 11.10260789 -26 12 C-26.495 12.495 -26.99 12.99 -27.5 13.5 C-29.64488308 15.64488308 -32.1518895 16.05062983 -35 17 C-36.02019573 17.9793879 -37.02149805 18.97895449 -38 20 C-39.66666667 20.66666667 -41.33333333 21.33333333 -43 22 C-43.45375 22.495 -43.9075 22.99 -44.375 23.5 C-46 25 -46 25 -49.375 25.9375 C-53.1723942 27.05052934 -55.01248312 28.49694532 -58 31 C-60.1875 31.875 -60.1875 31.875 -62 32 C-62.66 31.34 -63.32 30.68 -64 30 C-62.8125 28.5 -62.8125 28.5 -61 27 C-58.3125 26.8125 -58.3125 26.8125 -56 27 C-56 26.34 -56 25.68 -56 25 C-54.54293274 24.49632243 -53.08429904 23.99717444 -51.625 23.5 C-50.81289062 23.2215625 -50.00078125 22.943125 -49.1640625 22.65625 C-47 22 -47 22 -45 22 C-45 21.34 -45 20.68 -45 20 C-42.86197093 18.4445238 -40.73934136 17.02069175 -38.5 15.625 C-37.85434082 15.21725342 -37.20868164 14.80950684 -36.54345703 14.3894043 C-32.80604587 12.05363979 -29.06662683 9.8371567 -25.0703125 7.96875 C-21.23965954 6.17629352 -17.49915187 4.19580957 -13.734375 2.26953125 C-8.98626688 0.06505248 -5.24304707 -0.10082783 0 0 Z " fill="#65AACC" transform="translate(186,37)"/>
<path d="M0 0 C4.75632775 0.44568811 9.54194834 0.21141744 14.3125 0.08984375 C17.66796875 0.25 17.66796875 0.25 21.66796875 2.25 C-26.84203125 2.25 -75.35203125 2.25 -125.33203125 2.25 C-125.33203125 1.92 -125.33203125 1.59 -125.33203125 1.25 C-124.77341683 1.24576806 -124.21480242 1.24153612 -123.63926029 1.23717594 C-110.01668951 1.13365441 -96.39416873 1.02492688 -82.77168369 0.91066074 C-76.18382448 0.85555741 -69.59596074 0.80215795 -63.00805664 0.75268555 C-56.64731562 0.70485581 -50.2866262 0.65250705 -43.92594719 0.59705925 C-41.50236234 0.57671977 -39.07876338 0.55799325 -36.65515327 0.54092598 C-33.25385585 0.51669498 -29.85265432 0.48666715 -26.45141602 0.45532227 C-25.45519226 0.4495668 -24.45896851 0.44381134 -23.43255615 0.43788147 C-18.33100133 0.38463842 -13.36792989 0.12535165 -8.31269741 -0.58119297 C-5.468213 -0.82362098 -2.81407785 -0.3984535 0 0 Z " fill="#4C84C9" transform="translate(125.33203125,283.75)"/>
<path d="M0 0 C1.32 0.33 2.64 0.66 4 1 C4 1.66 4 2.32 4 3 C4.99 2.67 5.98 2.34 7 2 C8.71875 2.99609375 8.71875 2.99609375 10.5 4.4375 C13.31914575 6.75172411 13.31914575 6.75172411 17 7 C17 7.99 17 8.98 17 10 C17.721875 10.28875 18.44375 10.5775 19.1875 10.875 C23.09375 12.4375 23.09375 12.4375 27 14 C27 14.66 27 15.32 27 16 C27.62648438 16.19335938 28.25296875 16.38671875 28.8984375 16.5859375 C29.71570313 16.84632813 30.53296875 17.10671875 31.375 17.375 C32.59316406 17.75785156 32.59316406 17.75785156 33.8359375 18.1484375 C36 19 36 19 38 21 C36.35 21 34.7 21 33 21 C33 20.34 33 19.68 33 19 C31.02 19.66 29.04 20.32 27 21 C26.67 19.02 26.34 17.04 26 15 C23.03 14.505 23.03 14.505 20 14 C20 13.34 20 12.68 20 12 C19.34 12 18.68 12 18 12 C18 14.64 18 17.28 18 20 C17.01 20.33 16.02 20.66 15 21 C14.98582031 20.25234375 14.97164062 19.5046875 14.95703125 18.734375 C14.80819123 12.48977343 14.80819123 12.48977343 11.625 7.375 C9.00166741 5.91162738 9.00166741 5.91162738 6 5 C6 10.28 6 15.56 6 21 C5.01 21 4.02 21 3 21 C3 15.06 3 9.12 3 3 C2.01 2.67 1.02 2.34 0 2 C0 1.34 0 0.68 0 0 Z " fill="#63AEE3" transform="translate(74,259)"/>
<path d="M0 0 C-0.33 0.66 -0.66 1.32 -1 2 C-2.32 2 -3.64 2 -5 2 C-5 2.66 -5 3.32 -5 4 C-6.45706726 4.50367757 -7.91570096 5.00282556 -9.375 5.5 C-10.18710938 5.7784375 -10.99921875 6.056875 -11.8359375 6.34375 C-14 7 -14 7 -16 7 C-16 7.66 -16 8.32 -16 9 C-18.97 9.99 -21.94 10.98 -25 12 C-25 12.66 -25 13.32 -25 14 C-28 16 -28 16 -31 16 C-31 16.66 -31 17.32 -31 18 C-33.046875 19.40234375 -33.046875 19.40234375 -35.75 20.9375 C-38.32403852 22.40891675 -40.78013489 23.83269389 -43.140625 25.62890625 C-45 27 -45 27 -48 28 C-48.66 27.67 -49.32 27.34 -50 27 C-50 26.01 -50 25.02 -50 24 C-49.31599121 23.61779297 -48.63198242 23.23558594 -47.92724609 22.84179688 C-44.74278171 21.06188102 -41.558892 19.28093952 -38.375 17.5 C-37.23248779 16.8615918 -36.08997559 16.22318359 -34.9128418 15.56542969 C-27.65017761 11.50289217 -27.65017761 11.50289217 -20.43359375 7.359375 C-19.80469238 6.99392578 -19.17579102 6.62847656 -18.52783203 6.25195312 C-16.93890403 5.32383463 -15.35403551 4.38877578 -13.76953125 3.453125 C-9.19597274 1.0534582 -5.18269305 -0.3048643 0 0 Z " fill="#9096A3" transform="translate(119,17)"/>
<path d="M0 0 C0 3.54404336 -0.60989485 4.10267905 -2.875 6.6875 C-3.40867187 7.31011719 -3.94234375 7.93273437 -4.4921875 8.57421875 C-6 10 -6 10 -8 10 C-8.23203125 10.5878125 -8.4640625 11.175625 -8.703125 11.78125 C-10.3217742 14.55050525 -12.08894796 15.72596531 -14.75 17.5 C-15.65363281 18.10714844 -16.55726563 18.71429688 -17.48828125 19.33984375 C-18.31714844 19.88769531 -19.14601563 20.43554688 -20 21 C-21.4540625 22.0209375 -21.4540625 22.0209375 -22.9375 23.0625 C-26.63606356 25.40240756 -30.44952862 27.46967204 -34.3046875 29.5390625 C-36.58630381 30.77576467 -38.82771168 32.0565684 -41.0625 33.375 C-44 35 -44 35 -46 35 C-46 33.35 -46 31.7 -46 30 C-44.4221875 29.87625 -44.4221875 29.87625 -42.8125 29.75 C-38.68154455 28.93735303 -37.12267599 27.68897099 -34 25 C-33.01 25 -32.02 25 -31 25 C-30.67 23.68 -30.34 22.36 -30 21 C-29.34 21.33 -28.68 21.66 -28 22 C-25.59050911 21.00117866 -25.59050911 21.00117866 -23 19.5625 C-18.19618529 17 -18.19618529 17 -16 17 C-16 15.68 -16 14.36 -16 13 C-14.35 13 -12.7 13 -11 13 C-11 12.34 -11 11.68 -11 11 C-10.34 11 -9.68 11 -9 11 C-9 10.34 -9 9.68 -9 9 C-8.34 8.67 -7.68 8.34 -7 8 C-6.34227572 4.97065509 -6.34227572 4.97065509 -6 2 C-4.02 1.34 -2.04 0.68 0 0 Z " fill="#426EB9" transform="translate(314,243)"/>
<path d="M0 0 C-5.51389569 3.34977797 -11.05393478 6.6159079 -16.71484375 9.7109375 C-19.20759932 11.11710731 -21.63001246 12.6172291 -24.0625 14.125 C-27.63520093 16.2807501 -31.07691703 18.02694963 -35.03515625 19.34375 C-37.01706021 19.97330471 -37.01706021 19.97330471 -38.93359375 20.84375 C-46.39147541 23.88893419 -54.09343293 23.26193535 -62 23 C-62 22.67 -62 22.34 -62 22 C-61.37351563 21.93941406 -60.74703125 21.87882812 -60.1015625 21.81640625 C-58.87566406 21.69072266 -58.87566406 21.69072266 -57.625 21.5625 C-56.81289062 21.48128906 -56.00078125 21.40007812 -55.1640625 21.31640625 C-52.95727195 21.10909886 -52.95727195 21.10909886 -51 20 C-51.33 18.68 -51.66 17.36 -52 16 C-51.4225 16.309375 -50.845 16.61875 -50.25 16.9375 C-44.70663264 19.55520125 -40.71751171 18.81438065 -35 17 C-31.52949346 15.56780505 -28.12614165 14.0902971 -25 12 C-24.67 11.01 -24.34 10.02 -24 9 C-22.109375 8.15625 -22.109375 8.15625 -19.75 7.5 C-16.1175731 6.40853945 -13.21369002 5.04507547 -10 3 C-9.34 3 -8.68 3 -8 3 C-8 2.34 -8 1.68 -8 1 C-3.375 -1.125 -3.375 -1.125 0 0 Z " fill="#4373B8" transform="translate(261,283)"/>
<path d="M0 0 C11.88 0 23.76 0 36 0 C35.01 1.32 34.02 2.64 33 4 C30.35294872 4.35669893 28.12764324 4.46776797 25.48828125 4.390625 C24.76005661 4.38496521 24.03183197 4.37930542 23.28153992 4.37347412 C20.95785502 4.35110029 18.63571793 4.30090669 16.3125 4.25 C14.73635041 4.22993609 13.16017663 4.21168512 11.58398438 4.1953125 C7.72206076 4.15123283 3.8612927 4.08220225 0 4 C0 2.68 0 1.36 0 0 Z " fill="#4076C6" transform="translate(0,62)"/>
<path d="M0 0 C0.99 0 1.98 0 3 0 C3 20.79 3 41.58 3 63 C2.01 63 1.02 63 0 63 C-0.33 61.68 -0.66 60.36 -1 59 C-0.34 59 0.32 59 1 59 C1 40.19 1 21.38 1 2 C-0.98 2.99 -0.98 2.99 -3 4 C-1.6875 2 -1.6875 2 0 0 Z " fill="#7BAED5" transform="translate(240,141)"/>
<path d="M0 0 C1.32 0 2.64 0 4 0 C4 9.9 4 19.8 4 30 C2.68 30 1.36 30 0 30 C0 20.1 0 10.2 0 0 Z " fill="#5EACE4" transform="translate(41,250)"/>
<path d="M0 0 C1.32 0 2.64 0 4 0 C4 9.9 4 19.8 4 30 C2.68 30 1.36 30 0 30 C0 20.1 0 10.2 0 0 Z " fill="#5DADE5" transform="translate(6,250)"/>
<path d="M0 0 C0.49587213 4.66455983 -0.84511397 6.68202172 -3.6875 10.3125 C-7.07445625 14.75224016 -10.11498614 19.22169579 -13 24 C-13.61328125 22.203125 -13.61328125 22.203125 -14 20 C-12.1875 16.75 -12.1875 16.75 -10 14 C-9.34 14 -8.68 14 -8 14 C-7.67 12.35 -7.34 10.7 -7 9 C-6.01 9 -5.02 9 -4 9 C-4 7.35 -4 5.7 -4 4 C-5.58888299 5.22198444 -7.17086464 6.45294475 -8.75 7.6875 C-9.63171875 8.37199219 -10.5134375 9.05648437 -11.421875 9.76171875 C-14.09254823 11.93224093 -14.09254823 11.93224093 -16.140625 14.76953125 C-16.75421875 15.50558594 -17.3678125 16.24164063 -18 17 C-18.99 17 -19.98 17 -21 17 C-21 17.66 -21 18.32 -21 19 C-22.25 20.625 -22.25 20.625 -24 22 C-25.32 22 -26.64 22 -28 22 C-28 21.34 -28 20.68 -28 20 C-25.36107824 18.21694476 -23.02821137 17.00940379 -20 16 C-19.69578125 15.39027344 -19.3915625 14.78054687 -19.078125 14.15234375 C-17.73293402 11.46683567 -16.15868979 10.33624605 -13.75 8.5625 C-10.95181352 6.47510687 -8.23978838 4.37507666 -5.625 2.0625 C-3 0 -3 0 0 0 Z " fill="#DAF0F9" transform="translate(194,184)"/>
<path d="M0 0 C3.96 0 7.92 0 12 0 C12.33 2.97 12.66 5.94 13 9 C8.71 9 4.42 9 0 9 C0 6.03 0 3.06 0 0 Z " fill="#467FCB" transform="translate(0,193)"/>
<path d="M0 0 C0.66 0 1.32 0 2 0 C0.87150068 3.90634379 -0.08735814 6.21399474 -3 9 C-3.71447643 11.10332891 -3.71447643 11.10332891 -4 13 C-2.68 13.33 -1.36 13.66 0 14 C-1.98 14.66 -3.96 15.32 -6 16 C-5.67 16.99 -5.34 17.98 -5 19 C-4.13375 18.4740625 -4.13375 18.4740625 -3.25 17.9375 C-0.64198224 16.85082593 0.39417629 17.06934867 3 18 C2.67 18.99 2.34 19.98 2 21 C-0.0625 21.6875 -0.0625 21.6875 -2 22 C-1.34 22.61875 -0.68 23.2375 0 23.875 C2 26 2 26 2 28 C-1.00161567 26.67474769 -2.86865222 25.31475744 -4.98046875 22.8125 C-5.50447266 22.19632813 -6.02847656 21.58015625 -6.56835938 20.9453125 C-7.36983398 19.98238281 -7.36983398 19.98238281 -8.1875 19 C-9.00637695 18.03707031 -9.00637695 18.03707031 -9.84179688 17.0546875 C-13.84211151 12.31577698 -13.84211151 12.31577698 -15 10 C-12 10 -12 10 -10.3125 11.5 C-9.879375 11.995 -9.44625 12.49 -9 13 C-8.01 12.67 -7.02 12.34 -6 12 C-4.77479736 8.99152582 -4.77479736 8.99152582 -4 6 C-3.34 6 -2.68 6 -2 6 C-1.855625 5.195625 -1.71125 4.39125 -1.5625 3.5625 C-1 1 -1 1 0 0 Z " fill="#5C9CCF" transform="translate(218,148)"/>
<path d="M0 0 C3.63 0 7.26 0 11 0 C11 3.3 11 6.6 11 10 C7.37 10 3.74 10 0 10 C0 6.7 0 3.4 0 0 Z " fill="#447BC9" transform="translate(0,147)"/>
<path d="M0 0 C0.33 0.99 0.66 1.98 1 3 C-4.75 8 -4.75 8 -7 8 C-7 8.66 -7 9.32 -7 10 C-7.66 10 -8.32 10 -9 10 C-9 10.66 -9 11.32 -9 12 C-9.66 12 -10.32 12 -11 12 C-11.33 12.99 -11.66 13.98 -12 15 C-13.62449243 16.70779973 -15.29220027 18.37550757 -17 20 C-17.66 20.66 -18.32 21.32 -19 22 C-22.125 22.125 -22.125 22.125 -25 22 C-25.33 21.34 -25.66 20.68 -26 20 C-25.01 19.67 -24.02 19.34 -23 19 C-21.86575614 17.90012717 -20.73781089 16.79309322 -19.640625 15.65625 C-13.61340622 9.57162914 -7.43344056 4.26734551 0 0 Z " fill="#427DBB" transform="translate(241,142)"/>
<path d="M0 0 C2.3125 1.25 2.3125 1.25 3.3125 3.25 C2.48226318 3.4833606 2.48226318 3.4833606 1.63525391 3.72143555 C-11.88281586 7.43654072 -11.88281586 7.43654072 -24.6328125 13.1484375 C-27.86081684 14.87904059 -31.23699092 16.03593199 -34.6875 17.25 C-34.6875 16.59 -34.6875 15.93 -34.6875 15.25 C-33.06251495 14.18360356 -31.38153834 13.20289657 -29.6875 12.25 C-29.11773437 11.85425781 -28.54796875 11.45851563 -27.9609375 11.05078125 C-22.51522777 7.31946162 -17.08051463 5.71920212 -10.6875 4.25 C-9.35364174 3.91877345 -8.02009751 3.58626292 -6.6875 3.25 C-6.6875 2.59 -6.6875 1.93 -6.6875 1.25 C-4.03583924 -0.51777384 -3.14407099 -0.87741516 0 0 Z " fill="#61778C" transform="translate(189.6875,30.75)"/>
<path d="M0 0 C3.38891322 0.68886787 6.18011613 1.98716486 9.25 3.5625 C10.14203125 4.01753906 11.0340625 4.47257812 11.953125 4.94140625 C12.96632812 5.46541016 12.96632812 5.46541016 14 6 C14 6.66 14 7.32 14 8 C18.32022229 9.00903151 22.58806216 9.99551646 27 10.5 C27.99 10.665 28.98 10.83 30 11 C30.33 11.66 30.66 12.32 31 13 C33.32716 13.37400786 35.66117862 13.70764733 38 14 C38.495 14.495 38.495 14.495 39 15 C41.32817964 15.36760731 43.6618385 15.70241581 46 16 C46 16.33 46 16.66 46 17 C29.63628042 18.16883711 12.59051827 11.19232432 0 1 C0 0.67 0 0.34 0 0 Z " fill="#4573B3" transform="translate(152,289)"/>
<path d="M0 0 C0.33 0 0.66 0 1 0 C1.22274663 6.34497667 1.41653007 12.69040833 1.59204102 19.03686523 C1.65469469 21.18679947 1.72350259 23.33656498 1.79907227 25.48608398 C2.93669627 58.18704793 2.93669627 58.18704793 -4 73 C-5.13328267 69.600152 -4.92004364 69.31244259 -3.6081543 66.20141602 C-1.35439238 59.83567049 -1.41643816 53.47122659 -1.26953125 46.77734375 C-1.23016713 45.42253676 -1.1895936 44.06776442 -1.14787292 42.71302795 C-1.04218577 39.17718196 -0.95274683 35.64111179 -0.86688232 32.10473633 C-0.77603378 28.4842536 -0.66955265 24.86423272 -0.56445312 21.24414062 C-0.36114748 14.16313239 -0.17503298 7.08176819 0 0 Z " fill="#4A8AD2" transform="translate(313,153)"/>
<path d="M0 0 C0.33 0 0.66 0 1 0 C0.99777939 0.78847321 0.99555878 1.57694641 0.99327087 2.38931274 C0.97320204 9.83381234 0.95799228 17.27829875 0.94818783 24.72281837 C0.94297777 28.54976179 0.9359143 32.37668277 0.92456055 36.20361328 C0.91366485 39.89944045 0.90770903 43.5952461 0.90512276 47.2910881 C0.90328053 48.69842238 0.89968317 50.10575553 0.89426994 51.5130806 C0.88697087 53.48999118 0.88659119 55.4669236 0.88647461 57.44384766 C0.884254 58.56747711 0.88203339 59.69110657 0.87974548 60.8487854 C0.91969647 64.03112553 0.91969647 64.03112553 1.63209534 67.22225952 C2 70 2 70 0 73 C-3.4910963 59.75253637 -2.00887933 45.627235 -1.5625 32.0625 C-1.54043488 31.36809814 -1.51836975 30.67369629 -1.49563599 29.95825195 C-1.17659641 19.95966373 -0.77113683 9.97555724 0 0 Z " fill="#74B6DA" transform="translate(73,143)"/>
<path d="M0 0 C3.63 0 7.26 0 11 0 C11 2.97 11 5.94 11 9 C7.37 9 3.74 9 0 9 C0 6.03 0 3.06 0 0 Z " fill="#4A87D0" transform="translate(0,102)"/>
<path d="M0 0 C0.66 0 1.32 0 2 0 C2 10.23 2 20.46 2 31 C1.01 31 0.02 31 -1 31 C-1.02465622 26.74585377 -1.04283899 22.49174502 -1.05493164 18.23754883 C-1.05997101 16.78929927 -1.06680253 15.34105483 -1.07543945 13.89282227 C-1.08752247 11.81525412 -1.09323211 9.73775303 -1.09765625 7.66015625 C-1.10289307 6.40855713 -1.10812988 5.15695801 -1.11352539 3.86743164 C-1 1 -1 1 0 0 Z " fill="#5FAFE6" transform="translate(19,249)"/>
<path d="M0 0 C1.32 0 2.64 0 4 0 C3.67 9.57 3.34 19.14 3 29 C2.01 29.33 1.02 29.66 0 30 C0 20.1 0 10.2 0 0 Z " fill="#5FB0E5" transform="translate(30,250)"/>
<path d="M0 0 C0.66 1.32 1.32 2.64 2 4 C2.804375 5.299375 2.804375 5.299375 3.625 6.625 C5 9 5 9 5 11 C4.34 11 3.68 11 3 11 C3 17.93 3 24.86 3 32 C2.01 32 1.02 32 0 32 C0 21.44 0 10.88 0 0 Z " fill="#61AEE5" transform="translate(14,203)"/>
<path d="M0 0 C-0.99 0.33 -1.98 0.66 -3 1 C-3.33 1.99 -3.66 2.98 -4 4 C-6.72265625 5.60546875 -6.72265625 5.60546875 -10.0625 7.1875 C-11.16722656 7.71730469 -12.27195312 8.24710938 -13.41015625 8.79296875 C-14.26480469 9.19128906 -15.11945312 9.58960938 -16 10 C-16.2773501 13.18490007 -16.2773501 13.18490007 -14 16 C-17.3 16 -20.6 16 -24 16 C-22 12 -22 12 -20 11 C-20.33 10.34 -20.66 9.68 -21 9 C-18.58706946 7.51442709 -16.1700253 6.03643408 -13.75 4.5625 C-13.06808594 4.14162109 -12.38617188 3.72074219 -11.68359375 3.28710938 C-11.01972656 2.88427734 -10.35585938 2.48144531 -9.671875 2.06640625 C-9.0644043 1.69459229 -8.45693359 1.32277832 -7.83105469 0.93969727 C-4.95141987 -0.53813132 -2.98586571 -1.49293286 0 0 Z " fill="#8B98A8" transform="translate(68,45)"/>
<path d="M0 0 C0.33 0 0.66 0 1 0 C1 9.9 1 19.8 1 30 C0.01 30 -0.98 30 -2 30 C-2.04939662 26.04903022 -2.08571755 22.0981797 -2.10986328 18.14697266 C-2.12488107 16.1408864 -2.15028981 14.13488676 -2.17578125 12.12890625 C-2.18544922 10.24365234 -2.18544922 10.24365234 -2.1953125 8.3203125 C-2.20578613 7.15773926 -2.21625977 5.99516602 -2.22705078 4.79736328 C-2 2 -2 2 0 0 Z " fill="#5FAEE6" transform="translate(4,205)"/>
<path d="M0 0 C0.99 0 1.98 0 3 0 C3 9.9 3 19.8 3 30 C2.34 30 1.68 30 1 30 C-0.09911549 26.70265354 -0.1139456 24.27041255 -0.09765625 20.80078125 C-0.09443359 19.59228516 -0.09121094 18.38378906 -0.08789062 17.13867188 C-0.07951172 15.87603516 -0.07113281 14.61339844 -0.0625 13.3125 C-0.05573242 11.40114258 -0.05573242 11.40114258 -0.04882812 9.45117188 C-0.03702873 6.30073436 -0.02056597 3.15039051 0 0 Z " fill="#60B0E5" transform="translate(7,160)"/>
<path d="M0 0 C0.66 0.33 1.32 0.66 2 1 C1.50628906 1.48210938 1.01257813 1.96421875 0.50390625 2.4609375 C-0.45708984 3.40839844 -0.45708984 3.40839844 -1.4375 4.375 C-2.07558594 5.00148438 -2.71367188 5.62796875 -3.37109375 6.2734375 C-5.07882176 7.91723061 -5.07882176 7.91723061 -6 10 C-6.66 10 -7.32 10 -8 10 C-8.1546875 10.86625 -8.1546875 10.86625 -8.3125 11.75 C-9.12123841 14.39678024 -10.29590741 15.80902381 -12 18 C-13.25997776 20.05360012 -14.49649436 22.1190449 -15.71875 24.1953125 C-17 26 -17 26 -20 28 C-18.35358055 17.42923877 -9.94092183 7.66495065 -1.7265625 1.21484375 C-1.15679687 0.81394531 -0.58703125 0.41304687 0 0 Z " fill="#B1D8F1" transform="translate(38,61)"/>
<path d="M0 0 C0.99 0 1.98 0 3 0 C3 9.57 3 19.14 3 29 C2.01 29 1.02 29 0 29 C0 19.43 0 9.86 0 0 Z " fill="#5FB0E6" transform="translate(7,70)"/>
<path d="M0 0 C0.99 0 1.98 0 3 0 C4.32 2.31 5.64 4.62 7 7 C6.01 7.495 6.01 7.495 5 8 C5 7.34 5 6.68 5 6 C4.01 6 3.02 6 2 6 C1.67 24.81 1.34 43.62 1 63 C0.67 63 0.34 63 0 63 C0 42.21 0 21.42 0 0 Z " fill="#709BC2" transform="translate(166,141)"/>
<path d="M0 0 C2.875 -0.125 2.875 -0.125 6 0 C6.66 0.66 7.32 1.32 8 2 C7.43181818 7.56818182 7.43181818 7.56818182 6 9 C3 9.125 3 9.125 0 9 C-0.33 8.67 -0.66 8.34 -1 8 C-0.82364548 5.30917128 -0.38164079 2.67148554 0 0 Z " fill="#6B7482" transform="translate(238,324)"/>
<path d="M0 0 C4.25209792 4.12324647 8.13635705 8.51282966 12 13 C11.67 13.66 11.34 14.32 11 15 C8.525 14.01 8.525 14.01 6 13 C6 11.68 6 10.36 6 9 C3.11562221 10.29299694 1.12780579 11.65941363 -1 14 C-0.95875 13.21625 -0.9175 12.4325 -0.875 11.625 C-0.71271266 8.83883881 -0.71271266 8.83883881 -3 7 C-2.2575 6.38125 -2.2575 6.38125 -1.5 5.75 C0.43386092 3.87797662 0.43386092 3.87797662 0 0 Z " fill="#65A4D7" transform="translate(195,174)"/>
<path d="M0 0 C0.58265625 0.21527344 1.1653125 0.43054687 1.765625 0.65234375 C0.775625 0.98234375 -0.214375 1.31234375 -1.234375 1.65234375 C-1.564375 2.64234375 -1.894375 3.63234375 -2.234375 4.65234375 C4.9690625 5.45810844 12.14953698 5.91997969 19.390625 6.21484375 C20.39480469 6.25802734 21.39898437 6.30121094 22.43359375 6.34570312 C24.87750883 6.45044234 27.32150117 6.55261631 29.765625 6.65234375 C29.765625 6.98234375 29.765625 7.31234375 29.765625 7.65234375 C25.8281412 7.68181254 21.89068644 7.69929782 17.953125 7.71484375 C16.30280273 7.72741211 16.30280273 7.72741211 14.61914062 7.74023438 C-4.51786206 7.79668571 -4.51786206 7.79668571 -9.234375 4.65234375 C-8.16330383 3.78285058 -7.07691556 2.9322017 -5.984375 2.08984375 C-5.38109375 1.61417969 -4.7778125 1.13851562 -4.15625 0.6484375 C-2.234375 -0.34765625 -2.234375 -0.34765625 0 0 Z " fill="#93A5BE" transform="translate(47.234375,55.34765625)"/>
<path d="M0 0 C-0.928125 0.433125 -1.85625 0.86625 -2.8125 1.3125 C-5.90575476 2.72319446 -5.90575476 2.72319446 -7.4375 4.5625 C-9 6 -9 6 -12.375 6.9375 C-16.1723942 8.05052934 -18.01248312 9.49694532 -21 12 C-23.1875 12.875 -23.1875 12.875 -25 13 C-25.66 12.34 -26.32 11.68 -27 11 C-25.8125 9.5 -25.8125 9.5 -24 8 C-21.3125 7.8125 -21.3125 7.8125 -19 8 C-19 7.34 -19 6.68 -19 6 C-17.54293274 5.49632243 -16.08429904 4.99717444 -14.625 4.5 C-13.81289062 4.2215625 -13.00078125 3.943125 -12.1640625 3.65625 C-10 3 -10 3 -8 3 C-8 2.34 -8 1.68 -8 1 C-2.25 -1.125 -2.25 -1.125 0 0 Z " fill="#6DADD2" transform="translate(149,56)"/>
<path d="M0 0 C6.63681941 7.96418329 7.92564991 15.93503598 9 26 C8.34 26.33 7.68 26.66 7 27 C6.67 24.03 6.34 21.06 6 18 C5.01 18 4.02 18 3 18 C2.92652344 17.11248047 2.92652344 17.11248047 2.8515625 16.20703125 C2.42997084 11.75124357 1.77403841 8.13942297 0 4 C0 2.68 0 1.36 0 0 Z " fill="#497CB9" transform="translate(318,102)"/>
<path d="M0 0 C0.66 0.33 1.32 0.66 2 1 C-3 6 -8 11 -13 16 C-13.99 16 -14.98 16 -16 16 C-16 16.66 -16 17.32 -16 18 C-17.25 19.625 -17.25 19.625 -19 21 C-20.32 21 -21.64 21 -23 21 C-23 20.34 -23 19.68 -23 19 C-20.36107824 17.21694476 -18.02821137 16.00940379 -15 15 C-14.69835937 14.3915625 -14.39671875 13.783125 -14.0859375 13.15625 C-12.71599503 10.43607646 -11.07284625 9.2891235 -8.625 7.5 C-5.48598757 5.19035875 -2.70182856 2.81286261 0 0 Z " fill="#CAE8F5" transform="translate(189,185)"/>
<path d="M0 0 C0.66 0.33 1.32 0.66 2 1 C2.58243239 3.25110118 3.06708425 5.52792827 3.5 7.8125 C4.28113348 11.90920546 5.04939562 15.32386098 7 19 C7.125 21.75 7.125 21.75 7 24 C0.89035338 17.89035338 -0.36162092 9.14224753 -2 1 C-1.34 0.67 -0.68 0.34 0 0 Z " fill="#85B6EB" transform="translate(14,193)"/>
<path d="M0 0 C1.125 3.75 1.125 3.75 0 6 C0.89163577 8.11683841 0.89163577 8.11683841 2 10 C-1.32307692 13.93846154 -1.32307692 13.93846154 -4.75 14.25 C-5.4925 14.1675 -6.235 14.085 -7 14 C-6.44010697 10.00987629 -5.24330232 7.4744948 -2.9375 4.1875 C-2.38964844 3.39730469 -1.84179688 2.60710937 -1.27734375 1.79296875 C-0.64505859 0.90544922 -0.64505859 0.90544922 0 0 Z " fill="#D9EDF6" transform="translate(221,147)"/>
<path d="M0 0 C3.63 0 7.26 0 11 0 C11 1.65 11 3.3 11 5 C7.37 5 3.74 5 0 5 C0 3.35 0 1.7 0 0 Z " fill="#4B87D2" transform="translate(0,147)"/>
<path d="M0 0 C5.19822672 1.36144033 8.09543873 3.46730171 12 7 C10 9 10 9 7.90625 9.265625 C7.1121875 9.26046875 6.318125 9.2553125 5.5 9.25 C4.7059375 9.25515625 3.911875 9.2603125 3.09375 9.265625 C1 9 1 9 -1 7 C0.65 6.01 2.3 5.02 4 4 C2.68 2.68 1.36 1.36 0 0 Z " fill="#72A6D5" transform="translate(127,276)"/>
<path d="M0 0 C0 4.32991847 -2.11505369 5.91377837 -5 9 C-8.92296433 10.30765478 -11.86002433 10.1971417 -16 10 C-16.66 9.34 -17.32 8.68 -18 8 C-16.700625 7.79375 -15.40125 7.5875 -14.0625 7.375 C-8.51823545 6.17814289 -4.48019481 3.36808971 0 0 Z " fill="#437DB6" transform="translate(175,220)"/>
<path d="M0 0 C11.88 0 23.76 0 36 0 C35.01 1.32 34.02 2.64 33 4 C31.68 4 30.36 4 29 4 C29 3.01 29 2.02 29 1 C19.43 1 9.86 1 0 1 C0 0.67 0 0.34 0 0 Z " fill="#4770B6" transform="translate(0,62)"/>
<path d="M0 0 C0 0.66 0 1.32 0 2 C-11.4092887 6.34289054 -23.07189264 4.86565192 -35 4 C-35 3.67 -35 3.34 -35 3 C-34.23856689 2.98018066 -33.47713379 2.96036133 -32.69262695 2.93994141 C-29.23224528 2.84450078 -25.77245145 2.73489788 -22.3125 2.625 C-21.11431641 2.5940625 -19.91613281 2.563125 -18.68164062 2.53125 C-16.94624023 2.47324219 -16.94624023 2.47324219 -15.17578125 2.4140625 C-14.11270752 2.3826416 -13.04963379 2.3512207 -11.9543457 2.31884766 C-7.58678433 1.84747875 -4.47357124 0 0 0 Z " fill="#1B3764" transform="translate(224,303)"/>
<path d="M0 0 C0.66 0 1.32 0 2 0 C3.65 3.96 5.3 7.92 7 12 C7.66 12 8.32 12 9 12 C9.05395478 13.62463842 9.09277195 15.24978541 9.125 16.875 C9.14820313 17.77992187 9.17140625 18.68484375 9.1953125 19.6171875 C9 22 9 22 7 24 C6.62875 22.14375 6.62875 22.14375 6.25 20.25 C4.94836993 14.3505256 2.97738921 8.70104421 1 3 C0.67 2.01 0.34 1.02 0 0 Z " fill="#0C1E40" transform="translate(321,106)"/>
<path d="M0 0 C0.33 0 0.66 0 1 0 C1 7.10146079 -0.72156801 12.19280044 -3.875 18.4375 C-4.40287109 19.48454102 -4.40287109 19.48454102 -4.94140625 20.55273438 C-6.65405339 23.82204406 -8.30995643 26.48531095 -11 29 C-9.92535135 24.27154594 -8.22402873 20.31787042 -6 16 C-3.77053545 11.66583413 -2.10769628 7.73288411 -1 3 C-0.67 2.01 -0.34 1.02 0 0 Z " fill="#3F67A8" transform="translate(326,214)"/>
<path d="M0 0 C6 2 6 2 7 4 C5.02 4 3.04 4 1 4 C1 13.24 1 22.48 1 32 C0.67 32 0.34 32 0 32 C0 21.44 0 10.88 0 0 Z " fill="#5BACE3" transform="translate(53,247)"/>
<path d="M0 0 C0.66 0.33 1.32 0.66 2 1 C1.52691406 1.32871094 1.05382812 1.65742187 0.56640625 1.99609375 C-4.51095187 5.64822854 -8.8175173 9.70281443 -13.1171875 14.2421875 C-15 16 -15 16 -17 16 C-16.64082965 13.1823705 -16.15784232 12.14620852 -14.0390625 10.18359375 C-13.24242188 9.60738281 -12.44578125 9.03117187 -11.625 8.4375 C-8.86915651 6.42223334 -6.39055171 4.43236894 -4 2 C-1.9375 0.75 -1.9375 0.75 0 0 Z " fill="#5491CA" transform="translate(135,88)"/>
<path d="M0 0 C1.16917969 0.34933594 2.33835938 0.69867188 3.54296875 1.05859375 C5.09111138 1.5183452 6.63929039 1.97797417 8.1875 2.4375 C8.95642578 2.66759766 9.72535156 2.89769531 10.51757812 3.13476562 C14.32525141 4.26235986 18.08151762 5.3168177 22 6 C22 6.33 22 6.66 22 7 C14.90370975 7.31461385 9.31715405 7.44572039 3 4 C3 3.34 3 2.68 3 2 C2.01 2 1.02 2 0 2 C0 1.34 0 0.68 0 0 Z " fill="#132A4F" transform="translate(167,299)"/>
<path d="M0 0 C-0.625 2.3125 -0.625 2.3125 -2 5 C-5.0625 6.75 -5.0625 6.75 -8 8 C-8.33 8.33 -8.66 8.66 -9 9 C-10.99958364 9.04080783 -13.00045254 9.04254356 -15 9 C-11.99407819 5.64724106 -9.0598906 3.90037433 -5 2 C-2 0 -2 0 0 0 Z " fill="#10264C" transform="translate(296,263)"/>
<path d="M0 0 C0.33 0 0.66 0 1 0 C1 3.3 1 6.6 1 10 C0.34 10 -0.32 10 -1 10 C-1.02578125 10.60328125 -1.0515625 11.2065625 -1.078125 11.828125 C-1.13484375 12.62734375 -1.1915625 13.4265625 -1.25 14.25 C-1.29640625 15.03890625 -1.3428125 15.8278125 -1.390625 16.640625 C-2.17536743 19.67898672 -3.67019853 20.96841312 -6 23 C-4.28363577 15.23375619 -2.41290492 7.58097076 0 0 Z " fill="#4471B9" transform="translate(327,204)"/>
<path d="M0 0 C3.55780196 0.60990891 6.6828589 1.5783681 10 3 C10 3.66 10 4.32 10 5 C10.62648438 5.19335938 11.25296875 5.38671875 11.8984375 5.5859375 C12.71570313 5.84632813 13.53296875 6.10671875 14.375 6.375 C15.18710938 6.63023437 15.99921875 6.88546875 16.8359375 7.1484375 C19 8 19 8 21 10 C19.35 10 17.7 10 16 10 C16 9.34 16 8.68 16 8 C14.02 8.66 12.04 9.32 10 10 C9.67 8.02 9.34 6.04 9 4 C6.03 3.505 6.03 3.505 3 3 C3 2.34 3 1.68 3 1 C2.01 0.67 1.02 0.34 0 0 Z " fill="#6AADD9" transform="translate(91,270)"/>
<path d="M0 0 C0.66 0.99 1.32 1.98 2 3 C0.84826645 5.46800047 -0.04783565 7.04783565 -2 9 C-5.125 9.125 -5.125 9.125 -8 9 C-8.33 8.34 -8.66 7.68 -9 7 C-8.01 6.67 -7.02 6.34 -6 6 C-4.29319053 4.37446717 -2.62339805 2.70884005 -1 1 C-0.67 0.67 -0.34 0.34 0 0 Z " fill="#4A88C7" transform="translate(224,155)"/>
<path d="M0 0 C3.63 0 7.26 0 11 0 C11 1.32 11 2.64 11 4 C7.37 4 3.74 4 0 4 C0 2.68 0 1.36 0 0 Z " fill="#4179C7" transform="translate(0,107)"/>
<path d="M0 0 C2.3125 1.25 2.3125 1.25 3.3125 3.25 C-1.52991633 4.58583899 -5.62187617 5.50328119 -10.6875 5.25 C-10.3575 4.59 -10.0275 3.93 -9.6875 3.25 C-8.6975 3.25 -7.7075 3.25 -6.6875 3.25 C-6.6875 2.59 -6.6875 1.93 -6.6875 1.25 C-4.03583924 -0.51777384 -3.14407099 -0.87741516 0 0 Z " fill="#637386" transform="translate(189.6875,30.75)"/>
<path d="M0 0 C1.175625 0.165 2.35125 0.33 3.5625 0.5 C9.25977573 1.16226294 14.92347291 0.98564034 20.64453125 0.83984375 C24 1 24 1 28 3 C18.1 3 8.2 3 -2 3 C-1.34 2.67 -0.68 2.34 0 2 C0 1.34 0 0.68 0 0 Z " fill="#5789C1" transform="translate(119,283)"/>
<path d="M0 0 C0 0.66 0 1.32 0 2 C-0.99 2 -1.98 2 -3 2 C-3.226875 2.78375 -3.45375 3.5675 -3.6875 4.375 C-5 7 -5 7 -7.25 8.3125 C-10.26577013 9.06644253 -12.90311028 9.14404138 -16 9 C-11.97806144 5.49702126 -5.60566856 0 0 0 Z " fill="#152B51" transform="translate(272,277)"/>
<path d="M0 0 C0.66 0 1.32 0 2 0 C2 1.98 2 3.96 2 6 C2.99 6 3.98 6 5 6 C3.55049545 9.7910119 1.84827434 13.3874638 0 17 C-1.23104155 13.31599416 -0.90767252 10.08525024 -0.5625 6.25 C-0.46066406 5.07953125 -0.35882812 3.9090625 -0.25390625 2.703125 C-0.17011719 1.81109375 -0.08632813 0.9190625 0 0 Z " fill="#68AFDF" transform="translate(19,69)"/>
<path d="M0 0 C3.38891322 0.68886787 6.18011613 1.98716486 9.25 3.5625 C10.14203125 4.01753906 11.0340625 4.47257812 11.953125 4.94140625 C12.96632812 5.46541016 12.96632812 5.46541016 14 6 C14 6.66 14 7.32 14 8 C15.32 8.33 16.64 8.66 18 9 C18 9.66 18 10.32 18 11 C13.28501126 9.64780353 9.67370412 7.69161848 5.625 4.9375 C4.56539062 4.22464844 3.50578125 3.51179688 2.4140625 2.77734375 C1.61742187 2.19082031 0.82078125 1.60429687 0 1 C0 0.67 0 0.34 0 0 Z " fill="#4472A8" transform="translate(152,289)"/>
<path d="M0 0 C7.92 0 15.84 0 24 0 C24 0.33 24 0.66 24 1 C18.94972046 2.33133731 15.14363108 3.25454416 10 2 C6.66515647 1.90191637 3.33544976 1.94171059 0 2 C0 1.34 0 0.68 0 0 Z " fill="#9AB7D9" transform="translate(48,64)"/>
<path d="M0 0 C4.01390293 2.67593529 4.19895451 5.67077556 5.1875 10.125 C5.45336914 11.25615234 5.45336914 11.25615234 5.72460938 12.41015625 C6.16037182 14.27097967 6.58158786 16.13519867 7 18 C4.32520907 15.65476784 3.11833777 13.41711208 1.8125 10.125 C1.46832031 9.28195313 1.12414062 8.43890625 0.76953125 7.5703125 C-0.02757207 4.90790649 -0.14355008 2.7621015 0 0 Z " fill="#6DAFD7" transform="translate(74,217)"/>
<path d="M0 0 C0.99 0 1.98 0 3 0 C3 0.66 3 1.32 3 2 C4.093125 1.938125 5.18625 1.87625 6.3125 1.8125 C11.79640423 1.78296371 16.80042462 3.39424878 22 5 C17.97403156 6.46494663 14.02581172 5.80629066 9.875 5.3125 C9.14667969 5.24611328 8.41835937 5.17972656 7.66796875 5.11132812 C5.5546875 4.86328125 5.5546875 4.86328125 2 4 C0.5078125 1.91796875 0.5078125 1.91796875 0 0 Z " fill="#619DD0" transform="translate(104,278)"/>
<path d="M0 0 C0.66 0.33 1.32 0.66 2 1 C1.01 1.33 0.02 1.66 -1 2 C-1.33 2.99 -1.66 3.98 -2 5 C-7.02715283 8.12800621 -7.02715283 8.12800621 -10.375 7.6875 C-10.91125 7.460625 -11.4475 7.23375 -12 7 C-8.18660874 3.64883798 -4.7349034 1.6974182 0 0 Z " fill="#9CA1AB" transform="translate(66,44)"/>
<path d="M0 0 C1.2065625 0.0309375 1.2065625 0.0309375 2.4375 0.0625 C2.4375 2.0425 2.4375 4.0225 2.4375 6.0625 C0.7875 6.0625 -0.8625 6.0625 -2.5625 6.0625 C-2.94468767 4.40635343 -3.27645102 2.73792976 -3.5625 1.0625 C-2.5625 0.0625 -2.5625 0.0625 0 0 Z " fill="#344054" transform="translate(280.5625,300.9375)"/>
<path d="M0 0 C1.98 0 3.96 0 6 0 C2.20551544 5.33599391 -0.66589755 7.23475833 -7 9 C-7.66 8.67 -8.32 8.34 -9 8 C-5.37 6.02 -1.74 4.04 2 2 C1.34 1.34 0.68 0.68 0 0 Z " fill="#5491CC" transform="translate(195,50)"/>
<path d="M0 0 C0.66 0.33 1.32 0.66 2 1 C1.01 1 0.02 1 -1 1 C-0.67 0.67 -0.34 0.34 0 0 Z M-7 2 C-6.67 2.66 -6.34 3.32 -6 4 C-4.35 3.34 -2.7 2.68 -1 2 C-5.625 6.875 -5.625 6.875 -9 8 C-9.66 7.67 -10.32 7.34 -11 7 C-11 6.01 -11 5.02 -11 4 C-9.68 3.34 -8.36 2.68 -7 2 Z " fill="#8E949D" transform="translate(80,37)"/>
<path d="M0 0 C0.66 0 1.32 0 2 0 C2 0.99 2 1.98 2 3 C-0.60179663 4.30089831 -2.5969188 4.16840078 -5.5 4.1875 C-6.4796875 4.20167969 -7.459375 4.21585938 -8.46875 4.23046875 C-11 4 -11 4 -13 2 C-12.14535156 1.93941406 -11.29070312 1.87882813 -10.41015625 1.81640625 C-8.75306641 1.69072266 -8.75306641 1.69072266 -7.0625 1.5625 C-5.96035156 1.48128906 -4.85820312 1.40007812 -3.72265625 1.31640625 C-1.08890097 1.29581916 -1.08890097 1.29581916 0 0 Z " fill="#3873B1" transform="translate(254,226)"/>
<path d="M0 0 C1.31896465 0.92838287 2.62998689 1.86805732 3.9375 2.8125 C4.66839844 3.33457031 5.39929688 3.85664063 6.15234375 4.39453125 C8 6 8 6 9 9 C5.625 8.4375 5.625 8.4375 2 7 C0.5625 3.375 0.5625 3.375 0 0 Z " fill="#6AA3D0" transform="translate(219,205)"/>
<path d="M0 0 C2.31 0 4.62 0 7 0 C6.67 1.65 6.34 3.3 6 5 C4.35 5 2.7 5 1 5 C0.67 3.35 0.34 1.7 0 0 Z " fill="#2B3546" transform="translate(170,0)"/>
<path d="M0 0 C0.66 0 1.32 0 2 0 C0.68 6.6 -0.64 13.2 -2 20 C-2.33 20 -2.66 20 -3 20 C-3.55353075 6.3667426 -3.55353075 6.3667426 0 0 Z " fill="#5E9BCD" transform="translate(14,89)"/>
<path d="M0 0 C0.58265625 0.21527344 1.1653125 0.43054687 1.765625 0.65234375 C0.775625 0.98234375 -0.214375 1.31234375 -1.234375 1.65234375 C-1.564375 2.31234375 -1.894375 2.97234375 -2.234375 3.65234375 C-2.564375 4.31234375 -2.894375 4.97234375 -3.234375 5.65234375 C-4.224375 5.98234375 -5.214375 6.31234375 -6.234375 6.65234375 C-7.224375 5.99234375 -8.214375 5.33234375 -9.234375 4.65234375 C-8.16330383 3.78285058 -7.07691556 2.9322017 -5.984375 2.08984375 C-5.38109375 1.61417969 -4.7778125 1.13851562 -4.15625 0.6484375 C-2.234375 -0.34765625 -2.234375 -0.34765625 0 0 Z " fill="#A3AEB8" transform="translate(47.234375,55.34765625)"/>
<path d="M0 0 C1.0209375 0.2165625 1.0209375 0.2165625 2.0625 0.4375 C4.27622968 0.86140568 6.51123355 1.17631058 8.75 1.4375 C10.35875 1.7159375 10.35875 1.7159375 12 2 C12.33 2.66 12.66 3.32 13 4 C13.99 4.33 14.98 4.66 16 5 C13.89521396 4.88590318 11.79115423 4.75834639 9.6875 4.625 C8.51574219 4.55539062 7.34398437 4.48578125 6.13671875 4.4140625 C3 4 3 4 0 2 C0 1.34 0 0.68 0 0 Z " fill="#487DBF" transform="translate(170,298)"/>
<path d="M0 0 C5.02692063 0.45699278 8.14896261 2.99241748 12 6 C8.98968256 6.93423645 8.13349732 7.04449911 5 6 C5 5.34 5 4.68 5 4 C4.01 3.67 3.02 3.34 2 3 C1.34 2.67 0.68 2.34 0 2 C0 1.34 0 0.68 0 0 Z " fill="#152D4B" transform="translate(149,289)"/>
<path d="M0 0 C1.98 0 3.96 0 6 0 C6 1.65 6 3.3 6 5 C4.35 5 2.7 5 1 5 C0.67 3.35 0.34 1.7 0 0 Z " fill="#2B364B" transform="translate(313,275)"/>
<path d="M0 0 C1.485 0.99 1.485 0.99 3 2 C3.40843923 4.71203652 3.13336867 7.2437142 3 10 C2.01 10.33 1.02 10.66 0 11 C0 7.37 0 3.74 0 0 Z " fill="#60ACE4" transform="translate(89,269)"/>
<path d="M0 0 C4.95 1.98 4.95 1.98 10 4 C10 4.66 10 5.32 10 6 C10.99 6.33 11.98 6.66 13 7 C13 7.33 13 7.66 13 8 C10.75 8.25 10.75 8.25 8 8 C5.9375 6.125 5.9375 6.125 4 4 C1.86690808 2.76487921 1.86690808 2.76487921 0 2 C0 1.34 0 0.68 0 0 Z " fill="#528DBB" transform="translate(252,53)"/>
<path d="M0 0 C0.66 0.33 1.32 0.66 2 1 C3.54023996 1.06950541 5.08334988 1.08452357 6.625 1.0625 C7.44226562 1.05347656 8.25953125 1.04445313 9.1015625 1.03515625 C9.72804688 1.02355469 10.35453125 1.01195313 11 1 C7.20844146 2.94723048 4.29965574 4 0 4 C-0.99 3.67 -1.98 3.34 -3 3 C-2.01 2.01 -1.02 1.02 0 0 Z " fill="#A3C5E2" transform="translate(36,65)"/>
<path d="M0 0 C5.56890517 0.47986031 10.67067568 1.29915181 16 3 C16 3.33 16 3.66 16 4 C10.88208358 4.10662326 6.07071901 3.71167986 1 3 C0.67 2.01 0.34 1.02 0 0 Z " fill="#5C9ABF" transform="translate(209,35)"/>
<path d="M0 0 C0.99 0.33 1.98 0.66 3 1 C1.68775452 4.93673644 0.08089673 7.22719294 -3 10 C-2.25 2.25 -2.25 2.25 0 0 Z " fill="#5E9FD0" transform="translate(223,138)"/>
<path d="M0 0 C-0.875 3.875 -0.875 3.875 -2 5 C-4.33297433 5.04092937 -6.66705225 5.04241723 -9 5 C-6.45523312 2.20075644 -3.92372883 0 0 0 Z " fill="#132C55" transform="translate(281,272)"/>
<path d="M0 0 C0.66 0 1.32 0 2 0 C0.88971278 3.84330191 0.02168791 6.35602308 -3 9 C-3.66 9.99 -4.32 10.98 -5 12 C-5 10.35 -5 8.7 -5 7 C-4.01 6.67 -3.02 6.34 -2 6 C-1.855625 5.195625 -1.71125 4.39125 -1.5625 3.5625 C-1 1 -1 1 0 0 Z " fill="#6AA3D0" transform="translate(218,148)"/>
<path d="M0 0 C1.65 0 3.3 0 5 0 C5 0.66 5 1.32 5 2 C5.66 2 6.32 2 7 2 C7.33 3.65 7.66 5.3 8 7 C7.01 7 6.02 7 5 7 C3.61328125 5.46875 3.61328125 5.46875 2.3125 3.5 C1.87550781 2.8503125 1.43851563 2.200625 0.98828125 1.53125 C0.49908203 0.77328125 0.49908203 0.77328125 0 0 Z " fill="#66A1CC" transform="translate(253,118)"/>
<path d="M0 0 C1.6065676 0.25620684 3.2102483 0.53055871 4.8125 0.8125 C6.15248047 1.03873047 6.15248047 1.03873047 7.51953125 1.26953125 C10.20531974 2.06046424 11.32213322 2.78699962 13 5 C13 5.66 13 6.32 13 7 C8.1725201 5.58707905 4.2837641 3.57025846 0 1 C0 0.67 0 0.34 0 0 Z " fill="#204061" transform="translate(230,40)"/>
<path d="M0 0 C0.66 0.33 1.32 0.66 2 1 C0.6875 2.5 0.6875 2.5 -1 4 C-1.99 4 -2.98 4 -4 4 C-4.33 4.99 -4.66 5.98 -5 7 C-9.455 7.495 -9.455 7.495 -14 8 C-11 6 -11 6 -8.6875 5.125 C-5.49257705 3.78759039 -2.83434348 1.97744894 0 0 Z " fill="#193463" transform="translate(238,295)"/>
<path d="M0 0 C0.66 0.33 1.32 0.66 2 1 C0.59645587 4.50886032 -0.64365823 5.4267148 -4 7 C-4.99 8.485 -4.99 8.485 -6 10 C-7.32 9.67 -8.64 9.34 -10 9 C-9.36191406 8.51789063 -8.72382813 8.03578125 -8.06640625 7.5390625 C-7.24011719 6.90742188 -6.41382813 6.27578125 -5.5625 5.625 C-4.73878906 4.99851562 -3.91507812 4.37203125 -3.06640625 3.7265625 C-0.91471908 2.16246096 -0.91471908 2.16246096 0 0 Z " fill="#183260" transform="translate(306,253)"/>
<path d="M0 0 C-1.55500981 3.81684226 -4.03595495 6.19195732 -7 9 C-6.51058824 3.49411765 -6.51058824 3.49411765 -4.0625 1.125 C-2 0 -2 0 0 0 Z " fill="#437DBB" transform="translate(189,200)"/>
<path d="M0 0 C8.77578475 -0.76681614 8.77578475 -0.76681614 11.77734375 1.11328125 C13.125 2.5 13.125 2.5 15 5 C12.0625 4.625 12.0625 4.625 9 4 C8.67 3.34 8.34 2.68 8 2 C6.10466658 1.53476937 6.10466658 1.53476937 3.9375 1.375 C2.638125 1.25125 1.33875 1.1275 0 1 C0 0.67 0 0.34 0 0 Z " fill="#DCF3FB" transform="translate(158,118)"/>
<path d="M0 0 C0.99 0.33 1.98 0.66 3 1 C1.85760183 2.33627775 0.71098945 3.66895388 -0.4375 5 C-1.07558594 5.7425 -1.71367187 6.485 -2.37109375 7.25 C-3.17740234 8.11625 -3.17740234 8.11625 -4 9 C-4.33 9 -4.66 9 -5 9 C-5 7.35 -5 5.7 -5 4 C-4.0409375 3.8453125 -4.0409375 3.8453125 -3.0625 3.6875 C-2.381875 3.460625 -1.70125 3.23375 -1 3 C-0.67 2.01 -0.34 1.02 0 0 Z " fill="#639ED1" transform="translate(29,66)"/>
<path d="M0 0 C3.37462715 0.54723683 5.08235 1.0549 8 3 C8 3.66 8 4.32 8 5 C8.99 5 9.98 5 11 5 C11 5.66 11 6.32 11 7 C9.02 7 7.04 7 5 7 C5 6.01 5 5.02 5 4 C2.5609294 1.79857668 2.5609294 1.79857668 0 0 Z " fill="#0D1D36" transform="translate(159,296)"/>
<path d="M0 0 C0.33 1.32 0.66 2.64 1 4 C-0.9375 6.25 -0.9375 6.25 -3 8 C-3.99 7.67 -4.98 7.34 -6 7 C-4.02 4.69 -2.04 2.38 0 0 Z " fill="#152A51" transform="translate(314,245)"/>
<path d="M0 0 C2.37948772 0.17625835 3.70225849 0.69719773 5.37890625 2.40234375 C6.62115486 3.90649092 7.81376056 5.45129851 9 7 C5.2241456 6.47557578 2.77627845 5.67345333 0 3 C0 2.01 0 1.02 0 0 Z " fill="#76B3E7" transform="translate(60,249)"/>
<path d="M0 0 C0.33 0.66 0.66 1.32 1 2 C1.99 2.33 2.98 2.66 4 3 C3.67 4.98 3.34 6.96 3 9 C2.01 9 1.02 9 0 9 C0 6.03 0 3.06 0 0 Z " fill="#63AFDF" transform="translate(26,226)"/>
<path d="M0 0 C-0.928125 0.433125 -1.85625 0.86625 -2.8125 1.3125 C-5.94274244 2.74574242 -5.94274244 2.74574242 -7.625 4.75 C-8.07875 5.1625 -8.5325 5.575 -9 6 C-11.1875 5.6875 -11.1875 5.6875 -13 5 C-11.35 4.34 -9.7 3.68 -8 3 C-8 2.34 -8 1.68 -8 1 C-2.25 -1.125 -2.25 -1.125 0 0 Z " fill="#64B6D7" transform="translate(149,56)"/>
<path d="M0 0 C0.66 0 1.32 0 2 0 C5.42857143 7.28571429 5.42857143 7.28571429 5 12 C2.54792359 9.54792359 1.39341806 7.16685923 0 4 C0 2.68 0 1.36 0 0 Z " fill="#88C8F0" transform="translate(16,205)"/>
<path d="M0 0 C3.79379058 1.49041773 5.68343758 3.69062512 8 7 C8 7.66 8 8.32 8 9 C8.66 9.33 9.32 9.66 10 10 C9.01 10 8.02 10 7 10 C5.17578125 8.06640625 5.17578125 8.06640625 3.3125 5.5625 C2.68988281 4.73878906 2.06726563 3.91507813 1.42578125 3.06640625 C0 1 0 1 0 0 Z " fill="#6A9FCA" transform="translate(185,136)"/>
<path d="M0 0 C6 7.71428571 6 7.71428571 6 11 C3.17621961 9.96461386 2.1756855 9.33380245 0.75 6.625 C0 4 0 4 0 0 Z " fill="#4373A9" transform="translate(318,102)"/>
<path d="M0 0 C5.75 1.875 5.75 1.875 8 3 C8 4.65 8 6.3 8 8 C6.85073734 7.04578192 5.70569459 6.08647955 4.5625 5.125 C3.92441406 4.59132813 3.28632813 4.05765625 2.62890625 3.5078125 C1 2 1 2 0 0 Z " fill="#102547" transform="translate(302,82)"/>
<path d="M0 0 C2.64 0.33 5.28 0.66 8 1 C8.66 2.65 9.32 4.3 10 6 C6.40992874 4.66654496 3.20429093 3.1056769 0 1 C0 0.67 0 0.34 0 0 Z " fill="#173358" transform="translate(278,67)"/>
<path d="M0 0 C1.41377341 2.63904371 2.37240135 5.07120629 3 8 C-0.37503669 6.8141763 -2.64722731 5.72426311 -5 3 C-4.360625 2.87625 -3.72125 2.7525 -3.0625 2.625 C-2.0415625 2.315625 -2.0415625 2.315625 -1 2 C-0.67 1.34 -0.34 0.68 0 0 Z " fill="#152F4F" transform="translate(269,56)"/>
<path d="M0 0 C0.598125 0.33 1.19625 0.66 1.8125 1 C4.05386471 2.20787988 4.05386471 2.20787988 7 2 C7.66 2.33 8.32 2.66 9 3 C9 3.99 9 4.98 9 6 C9.66 6.33 10.32 6.66 11 7 C5.95904225 6.55520961 3.58884285 4.33845847 0 1 C0 0.67 0 0.34 0 0 Z " fill="#72B3E1" transform="translate(82,263)"/>
<path d="M0 0 C-2.68841859 2.25245881 -4.64641875 3.88213958 -8 5 C-8 4.01 -8 3.02 -8 2 C-3.71900826 -1.23966942 -3.71900826 -1.23966942 0 0 Z " fill="#677D94" transform="translate(154,49)"/>
<path d="M0 0 C0.66 0.33 1.32 0.66 2 1 C-1.32307692 4.93846154 -1.32307692 4.93846154 -4.75 5.25 C-5.4925 5.1675 -6.235 5.085 -7 5 C-4.63707344 2.47411298 -3.33537489 1.11179163 0 0 Z " fill="#162F5E" transform="translate(288,267)"/>
<path d="M0 0 C2.02045442 0.60183749 4.02111039 1.27306096 6 2 C6.33 2.66 6.66 3.32 7 4 C4.69 4.33 2.38 4.66 0 5 C0 3.35 0 1.7 0 0 Z " fill="#65A7DC" transform="translate(53,247)"/>
<path d="M0 0 C0 3.58912412 -0.66436554 4.10857029 -3 6.6875 C-3.556875 7.31011719 -4.11375 7.93273437 -4.6875 8.57421875 C-5.120625 9.04472656 -5.55375 9.51523438 -6 10 C-6.66 9.67 -7.32 9.34 -8 9 C-5.36 6.03 -2.72 3.06 0 0 Z " fill="#4885CC" transform="translate(303,234)"/>
<path d="M0 0 C2.31 1.98 4.62 3.96 7 6 C6.67 6.66 6.34 7.32 6 8 C3.5625 7.375 3.5625 7.375 1 6 C0.1875 2.875 0.1875 2.875 0 0 Z " fill="#77ABD2" transform="translate(200,181)"/>
<path d="M0 0 C3 0 3 0 5.125 1.6875 C7.16972964 4.20933322 7.64598897 5.81390075 8 9 C5.06799526 6.14723863 2.35684596 3.34920216 0 0 Z " fill="#649FCF" transform="translate(203,158)"/>
<path d="M0 0 C3.73884332 2.65654657 5.64978174 4.58110387 7 9 C6.34 9.66 5.68 10.32 5 11 C4.54625 9.9275 4.0925 8.855 3.625 7.75 C2.49911463 5.11937683 1.32079794 2.53999604 0 0 Z " fill="#79B0D8" transform="translate(177,153)"/>
<path d="M0 0 C0.99 0 1.98 0 3 0 C4.32 2.31 5.64 4.62 7 7 C6.01 7.495 6.01 7.495 5 8 C5 7.34 5 6.68 5 6 C4.01 6 3.02 6 2 6 C2 4.35 2 2.7 2 1 C1.34 0.67 0.68 0.34 0 0 Z " fill="#80ACD4" transform="translate(166,141)"/>
<path d="M0 0 C1.65 1.65 3.3 3.3 5 5 C4.67 5.66 4.34 6.32 4 7 C2.35 6.67 0.7 6.34 -1 6 C-0.67 4.02 -0.34 2.04 0 0 Z " fill="#4175A9" transform="translate(312,93)"/>
<path d="M0 0 C0.66 0 1.32 0 2 0 C2 0.66 2 1.32 2 2 C1.34 2 0.68 2 0 2 C-0.28875 3.134375 -0.5775 4.26875 -0.875 5.4375 C-1.24625 6.613125 -1.6175 7.78875 -2 9 C-2.99 9.495 -2.99 9.495 -4 10 C-3.43697042 6.05879291 -2.3208055 3.2491277 0 0 Z " fill="#B9E3F7" transform="translate(22,79)"/>
<path d="M0 0 C0.86625 0.556875 0.86625 0.556875 1.75 1.125 C-0.25 3.125 -0.25 3.125 -3.375 3.25 C-4.798125 3.188125 -4.798125 3.188125 -6.25 3.125 C-6.25 2.465 -6.25 1.805 -6.25 1.125 C-2.80384615 -1.09038462 -2.80384615 -1.09038462 0 0 Z " fill="#646A73" transform="translate(189.25,30.875)"/>
<path d="M0 0 C1.21518987 4.86075949 1.21518987 4.86075949 0 8 C-0.99 8.99 -1.98 9.98 -3 11 C-2.01 7.37 -1.02 3.74 0 0 Z " fill="#091D3D" transform="translate(325,224)"/>
<path d="M0 0 C0.99 0.33 1.98 0.66 3 1 C2.34 2.32 1.68 3.64 1 5 C0.01 4.67 -0.98 4.34 -2 4 C-2 3.01 -2 2.02 -2 1 C-1.34 0.67 -0.68 0.34 0 0 Z " fill="#53A0E4" transform="translate(214,163)"/>
<path d="M0 0 C2.38672669 2.96283313 4.7353371 5.94270509 7 9 C4.13998967 7.71792641 1.92960588 6.50848764 0 4 C0 2.68 0 1.36 0 0 Z " fill="#D5EFF9" transform="translate(197,151)"/>
<path d="M0 0 C0.33 0.99 0.66 1.98 1 3 C-0.75 4.5625 -0.75 4.5625 -3 6 C-4.32 5.67 -5.64 5.34 -7 5 C-4.69 3.35 -2.38 1.7 0 0 Z " fill="#3B74AF" transform="translate(241,142)"/>
<path d="M0 0 C0.66 0 1.32 0 2 0 C2 0.66 2 1.32 2 2 C4.475 2.99 4.475 2.99 7 4 C6.34 4.66 5.68 5.32 5 6 C2.875 5.625 2.875 5.625 1 5 C0.67 3.35 0.34 1.7 0 0 Z " fill="#4F88B7" transform="translate(272,64)"/>
<path d="M0 0 C0.66 0.33 1.32 0.66 2 1 C2 1.66 2 2.32 2 3 C-1.22791555 5.1519437 -2.28400809 5.20086443 -6 5 C-5.195625 4.360625 -4.39125 3.72125 -3.5625 3.0625 C-1.7249496 1.59396498 -1.7249496 1.59396498 0 0 Z " fill="#979EA7" transform="translate(53,50)"/>
<path d="M0 0 C0.33 0.99 0.66 1.98 1 3 C-1 6 -1 6 -3.125 6.6875 C-3.74375 6.790625 -4.3625 6.89375 -5 7 C-4.34 5.35 -3.68 3.7 -3 2 C-2.01 2 -1.02 2 0 2 C0 1.34 0 0.68 0 0 Z " fill="#0D2348" transform="translate(320,238)"/>
<path d="M0 0 C0.66 1.32 1.32 2.64 2 4 C0.02 4.99 -1.96 5.98 -4 7 C-2.79618552 4.50638429 -1.54571278 2.31856917 0 0 Z " fill="#558BBD" transform="translate(189,195)"/>
<path d="M0 0 C1.32 0.33 2.64 0.66 4 1 C4.33 2.65 4.66 4.3 5 6 C3.0625 5.25 3.0625 5.25 1 4 C0.25 1.875 0.25 1.875 0 0 Z " fill="#6FA7D1" transform="translate(180,130)"/>
<path d="M0 0 C0.99 0 1.98 0 3 0 C2 3 2 3 -1.0625 4.6875 C-2.031875 5.120625 -3.00125 5.55375 -4 6 C-2.84826645 3.53199953 -1.95216435 1.95216435 0 0 Z " fill="#CDEAF7" transform="translate(241,119)"/>
<path d="M0 0 C0.66 0.33 1.32 0.66 2 1 C0.68 3.64 -0.64 6.28 -2 9 C-2.33 9 -2.66 9 -3 9 C-3.36923077 3.46153846 -3.36923077 3.46153846 -1.5 1.125 C-1.005 0.75375 -0.51 0.3825 0 0 Z " fill="#87B9DE" transform="translate(81,102)"/>
<path d="M0 0 C2.475 0.99 2.475 0.99 5 2 C4.01 3.485 4.01 3.485 3 5 C2.01 3.35 1.02 1.7 0 0 Z M0 5 C0.99 5 1.98 5 3 5 C3 5.66 3 6.32 3 7 C2.01 6.67 1.02 6.34 0 6 C0 5.67 0 5.34 0 5 Z " fill="#4D8CC8" transform="translate(288,74)"/>
<path d="M0 0 C0.66 0.33 1.32 0.66 2 1 C-4.75 5 -4.75 5 -7 5 C-7 4.34 -7 3.68 -7 3 C-4.69631264 1.93347808 -2.35981813 0.93578995 0 0 Z " fill="#A8ADB9" transform="translate(66,44)"/>
<path d="M0 0 C-5.75 4 -5.75 4 -8 4 C-5.97675095 -0.48005146 -4.79569304 -1.43870791 0 0 Z " fill="#A4A9B4" transform="translate(82,37)"/>
</svg>
